<svg xmlns="http://www.w3.org/2000/svg" viewBox="0 0 12.2 20.36"><defs><style>.cls-1{fill:#344154;}</style></defs><g id="Capa_2" data-name="Capa 2"><g id="social_posts" data-name="social posts"><path class="cls-1" d="M11.45,20.36H.75A.76.76,0,0,1,0,19.6V.75A.76.76,0,0,1,.75,0h10.7a.76.76,0,0,1,.75.75V19.6A.76.76,0,0,1,11.45,20.36ZM1,19.38H11.22V1H1Z"/><path class="cls-1" d="M11.71,3.86H.49a.49.49,0,0,1,0-1H11.71a.49.49,0,0,1,0,1Z"/><path class="cls-1" d="M11.71,17H.49a.49.49,0,1,1,0-1H11.71a.49.49,0,0,1,0,1Z"/><path class="cls-1" d="M7.08,18.7h-2a.49.49,0,1,1,0-1h2a.49.49,0,1,1,0,1Z"/><path class="cls-1" d="M8.09,2.34h-4a.49.49,0,0,1,0-1h4a.49.49,0,0,1,0,1Z"/></g></g></svg>