<svg xmlns="http://www.w3.org/2000/svg" viewBox="0 0 198.4 154.35"><defs><style>.cls-1{fill:#35b4cf;}.cls-2{fill:#344154;}.cls-3{fill:#ffc524;}</style></defs><g id="Capa_2" data-name="Capa 2"><g id="Layer_1" data-name="Layer 1"><path class="cls-1" d="M184.45,88.07c0-15.65-14.86-28.59-33.22-28.9s-33.36,12.18-33.36,27.9,9-14,33.29-13.44C177.58,73.36,184.45,103.72,184.45,88.07Z"/><path class="cls-2" d="M151.49,146.61a46.9,46.9,0,1,1,46.91-46.9A47,47,0,0,1,151.49,146.61Zm0-90.17a43.27,43.27,0,1,0,43.27,43.27A43.32,43.32,0,0,0,151.49,56.44Z"/><path class="cls-2" d="M44.33,38C19.48,38,0,29.68,0,19S19.48,0,44.33,0,88.64,8.35,88.64,19,69.18,38,44.33,38Zm0-34.4C20,3.64,3.66,11.59,3.66,19S20,34.4,44.33,34.4,85,26.45,85,19,68.66,3.64,44.33,3.64Z"/><path class="cls-2" d="M44.31,66.45a93,93,0,0,1-24.1-3h0l-.3-.06C7.26,59.9,0,54.08,0,47.45a1.82,1.82,0,0,1,3.64,0c0,4.7,6.51,9.43,17,12.39l.29.06a89.25,89.25,0,0,0,23.37,2.91A89.5,89.5,0,0,0,67.74,59.9l.3-.06C78.5,56.89,85,52.16,85,47.45a1.82,1.82,0,1,1,3.63,0c0,6.64-7.23,12.46-19.84,16l-.3.06A93.28,93.28,0,0,1,44.31,66.45Z"/><path class="cls-2" d="M68.29,63.47h-.06a1.82,1.82,0,1,1,0-3.63,1.84,1.84,0,0,1,1.85,1.81A1.79,1.79,0,0,1,68.29,63.47Z"/><path class="cls-2" d="M20.46,63.47h-.07a1.82,1.82,0,0,1,0-3.63,1.84,1.84,0,0,1,1.85,1.81A1.79,1.79,0,0,1,20.46,63.47Z"/><path class="cls-2" d="M44.31,94.86a95.45,95.45,0,0,1-22.1-2.46v0l-2.3-.63C7.26,88.31,0,82.49,0,75.86a1.82,1.82,0,0,1,3.64,0c0,4.64,6.34,9.31,16.6,12.27l.55-.24.58.54a89.89,89.89,0,0,0,22.94,2.79A89.71,89.71,0,0,0,67.5,88.38l1.14-.49.14.14c10-3,16.21-7.57,16.21-12.17a1.82,1.82,0,1,1,3.63,0c0,6.64-7.23,12.46-19.84,16l-1,.27,0,0A93.83,93.83,0,0,1,44.31,94.86Z"/><path class="cls-2" d="M20.46,91.88h-.07a1.82,1.82,0,0,1,0-3.64,1.85,1.85,0,0,1,1.85,1.82A1.79,1.79,0,0,1,20.46,91.88Z"/><path class="cls-2" d="M44.31,123.27a101.26,101.26,0,0,1-18.38-1.64l-.3,0C9.82,118.49,0,111.85,0,104.27a1.82,1.82,0,0,1,3.64,0c0,5.47,8.81,10.9,22,13.62l.65-.4.66.63a98.33,98.33,0,0,0,17.35,1.51A97.81,97.81,0,0,0,62.25,118l.28,0C76,115.32,85,109.81,85,104.27a1.82,1.82,0,1,1,3.63,0c0,7.59-9.79,14.22-25.56,17.32l-.31,0A101.61,101.61,0,0,1,44.31,123.27Z"/><path class="cls-2" d="M68.29,91.88h-.06a1.82,1.82,0,0,1,0-3.64,1.85,1.85,0,0,1,1.85,1.82A1.79,1.79,0,0,1,68.29,91.88Z"/><path class="cls-2" d="M62.71,121.63h-.13a1.82,1.82,0,0,1,0-3.64h.13a1.82,1.82,0,0,1,0,3.64Z"/><path class="cls-2" d="M26.1,121.63H26a1.82,1.82,0,0,1-.39-3.6,1.93,1.93,0,0,1,1.8.5,1.82,1.82,0,0,1,0,2.57A1.84,1.84,0,0,1,26.1,121.63Z"/><path class="cls-2" d="M44.31,154.35C19.46,154.35,0,146,0,135.29a1.82,1.82,0,0,1,3.64,0c0,7.45,16.34,15.42,40.67,15.42S85,142.74,85,135.29a1.82,1.82,0,1,1,3.63,0C88.62,146,69.16,154.35,44.31,154.35Z"/><path class="cls-2" d="M1.84,137.13A1.81,1.81,0,0,1,0,135.32V19a1.82,1.82,0,0,1,3.64,0v116.3A1.82,1.82,0,0,1,1.84,137.13Z"/><path class="cls-2" d="M86.83,137.13A1.81,1.81,0,0,1,85,135.32V19a1.82,1.82,0,1,1,3.63,0v116.3A1.81,1.81,0,0,1,86.83,137.13Z"/><path class="cls-2" d="M155.72,126h-8.3v-4.35a28.9,28.9,0,0,1-8.42-2.23l-1.09-.47V107.27l2.64,1.34a30.45,30.45,0,0,0,5.37,2.09,17.59,17.59,0,0,0,4.88.82,6.5,6.5,0,0,0,1.72-.17,10.08,10.08,0,0,0-1.54-.78c-1-.42-2.28-.94-3.94-1.54A20.42,20.42,0,0,1,142,106.4a10.1,10.1,0,0,1-3.1-3.61,11,11,0,0,1-1-4.87,9.12,9.12,0,0,1,3-7.18,13.05,13.05,0,0,1,6.55-2.81V84.61h8.3v3.2a28.77,28.77,0,0,1,7.94,2.2l1.66.71-4.1,9.81-1.7-.77a19.37,19.37,0,0,0-7.76-2,7.42,7.42,0,0,0-1.13.07c.21.13.53.29,1,.51.83.37,2,.82,3.46,1.32,3.46,1.22,5.9,2.61,7.48,4.25a9.39,9.39,0,0,1,2.56,6.75,10.05,10.05,0,0,1-2.94,7.45,12.56,12.56,0,0,1-6.46,3.18Zm-4.66-3.64h1v-4.14l1.6-.2a9.93,9.93,0,0,0,5.94-2.42,6.46,6.46,0,0,0,1.86-4.86,5.76,5.76,0,0,0-1.55-4.22,15.88,15.88,0,0,0-6.05-3.35c-1.56-.53-2.84-1-3.78-1.44a8.79,8.79,0,0,1-2.32-1.41,3.39,3.39,0,0,1-1.11-2.56,3.21,3.21,0,0,1,1.61-2.85,6.7,6.7,0,0,1,3.47-.7,21.09,21.09,0,0,1,7.52,1.56l1.27-3a23.92,23.92,0,0,0-6.74-1.4l-1.72-.1v-3h-1v2.91l-1.63.17c-2.79.29-4.86,1-6.16,2.15a5.58,5.58,0,0,0-1.77,4.45,7.44,7.44,0,0,0,.62,3.27,6.48,6.48,0,0,0,2,2.3,16.69,16.69,0,0,0,4.16,2.13c1.72.62,3.12,1.16,4.15,1.61a12,12,0,0,1,2.55,1.42,3.44,3.44,0,0,1,1.32,2.68,3.38,3.38,0,0,1-1.87,3.16,8,8,0,0,1-3.64.67,21.85,21.85,0,0,1-5.9-1c-1.16-.34-2.28-.73-3.35-1.16v3.45a25.29,25.29,0,0,0,7.77,1.62l1.74.08Z"/><path class="cls-3" d="M22.69,54.46C13.1,54.25,8.42,49,8.42,49V34.27s6.29,5,14.4,4.55Z"/><path class="cls-3" d="M22.69,82.32c-9.59-.2-14.27-5.49-14.27-5.49V62.14s6.29,5,14.4,4.55Z"/><path class="cls-3" d="M22.69,111.67c-9.59-.2-14.27-5.5-14.27-5.5V91.48s6.29,5,14.4,4.56Z"/><path class="cls-3" d="M22.69,141c-9.59-.2-14.27-5.49-14.27-5.49v-14.7s6.29,5.05,14.4,4.56Z"/></g></g></svg>