<svg xmlns="http://www.w3.org/2000/svg" viewBox="0 0 114.32 107.21"><defs><style>.cls-1{fill:#ffc524;}.cls-2,.cls-3{fill:none;stroke:#344154;stroke-miterlimit:10;stroke-width:3px;}.cls-2{stroke-linecap:round;}</style></defs><g id="Capa_2" data-name="Capa 2"><g id="social_posts" data-name="social posts"><path class="cls-1" d="M14.37,62.39C12.6,51.12,26.14,42.15,36.17,51.83c0,0-5.3-12.23-17.39-11.43a18.51,18.51,0,0,0-15.2,9.94,19,19,0,0,0-1,15.08,24.66,24.66,0,0,0,3.2,6.41c.53.76,1.09,1.49,1.69,2.2a126.72,126.72,0,0,0,12.8,12.33S32.89,96.69,35.9,103.52c0-8.71-3.73-17.6-9.39-24.14C22.23,74.44,15.5,69.58,14.37,62.39Z"/><path class="cls-2" d="M67.46,70.41a23.8,23.8,0,0,0,2.14-4.64,19,19,0,0,0-.83-15.09,18.52,18.52,0,0,0-15.09-10.1c-12.09-.92-17.51,11.25-17.51,11.25S30.87,39.6,18.78,40.4a18.51,18.51,0,0,0-15.2,9.94,19,19,0,0,0-1,15.08,24.66,24.66,0,0,0,3.2,6.41c.53.76,1.09,1.49,1.69,2.2a126.72,126.72,0,0,0,12.8,12.33S32.89,96.69,35.9,103.52c1.85-4.08,7.18-9.39,11.14-13"/><circle class="cls-3" cx="50.76" cy="74.17" r="6.81" transform="translate(-37.19 92.68) rotate(-67.5)"/><path class="cls-2" d="M49.82,61.27a12,12,0,0,0-12,12"/><path class="cls-2" d="M60.66,83.24l3.51,2.52A17.36,17.36,0,0,0,91.66,71.67V38.86"/><path class="cls-2" d="M106.83,6.64l-.92-.27a2.49,2.49,0,0,1-1.7-3h0a2.49,2.49,0,0,1,3-1.77l2.52.67a4,4,0,0,1,3,3.69c.37,8.6-.39,32.92-21.1,32.92S70.19,14.54,70.57,5.94a4,4,0,0,1,3-3.69l2.52-.67a2.48,2.48,0,0,1,3,1.77h0a2.48,2.48,0,0,1-1.69,3l-.92.27"/></g></g></svg>