<svg xmlns="http://www.w3.org/2000/svg" viewBox="0 0 18.22 18.93"><defs><style>.cls-1{fill:#344154;}</style></defs><g id="Capa_2" data-name="Capa 2"><g id="social_posts" data-name="social posts"><path class="cls-1" d="M18.2,18.93H0V7.74L9.05,0,18.2,7.73ZM1,18H17.22V8.19L9.06,1.29,1,8.19Z"/><path class="cls-1" d="M17.63,18.93H.2l-.12-.37A.49.49,0,0,1,.3,18l8.8-5.36,9.12,5.55-.1.38A.5.5,0,0,1,17.63,18.93ZM2.24,18H16L9.1,13.78Z"/><path class="cls-1" d="M9.1,13.82.3,8.46a.49.49,0,0,1-.16-.67.49.49,0,0,1,.67-.17L9.1,12.67l8.31-5.1a.49.49,0,0,1,.67.16.48.48,0,0,1-.16.67Z"/></g></g></svg>