<svg xmlns="http://www.w3.org/2000/svg" viewBox="0 0 53.3 53.3"><defs><style>.cls-1{fill:#fff;}</style></defs><g id="Capa_2" data-name="Capa 2"><g id="Layer_1" data-name="Layer 1"><path class="cls-1" d="M29.15,43.33h-5.9a1.17,1.17,0,0,1-1.17-1.16V30.23h-4a1.18,1.18,0,0,1-1.17-1.17V23.43a1.17,1.17,0,0,1,1.17-1.16h4V19.45c0-3.35.94-5.85,2.78-7.44,2.2-1.89,5.62-2.46,10.43-1.74a1.25,1.25,0,0,1,1.06,1.23v4.92a1.18,1.18,0,0,1-1.18,1.18H31.9c-1.08,0-1.58.18-1.58,1.85v2.82h4.57a1.21,1.21,0,0,1,1.2,1.35l-.67,5.53a1.22,1.22,0,0,1-1.21,1.08H30.32V42.17A1.17,1.17,0,0,1,29.15,43.33Zm-5.07-2h4.24v-12a1.1,1.1,0,0,1,1.1-1.1h4.1l.48-4H29.42a1.09,1.09,0,0,1-1.1-1.09V19.45c0-2.55,1.2-3.84,3.58-3.84h2.46V12.16c-3.87-.5-6.55-.05-8.2,1.37-1.4,1.2-2.08,3.14-2.08,5.92v3.72A1.09,1.09,0,0,1,23,24.26h-4v4h4a1.1,1.1,0,0,1,1.1,1.1Zm9.36-12.42Z"/><path class="cls-1" d="M39.65,53.3h-26A13.67,13.67,0,0,1,0,39.65v-26A13.66,13.66,0,0,1,13.65,0h26A13.67,13.67,0,0,1,53.3,13.65v26A13.67,13.67,0,0,1,39.65,53.3ZM13.65,2A11.67,11.67,0,0,0,2,13.65v26A11.67,11.67,0,0,0,13.65,51.3h26A11.67,11.67,0,0,0,51.3,39.65v-26A11.67,11.67,0,0,0,39.65,2Z"/></g></g></svg>