<svg xmlns="http://www.w3.org/2000/svg" viewBox="0 0 178.2 180.15"><defs><style>.cls-1{fill:#344154;}.cls-2{fill:#35b4cf;}</style></defs><g id="Capa_2" data-name="Capa 2"><g id="Layer_1" data-name="Layer 1"><path class="cls-1" d="M60,180.15H16.1a2.79,2.79,0,0,1-2.78-2.78V154H62.73v23.37A2.79,2.79,0,0,1,60,180.15ZM17.53,176h41V158.2h-41Z"/><path class="cls-1" d="M162.09,180.15H118.25a2.79,2.79,0,0,1-2.78-2.78V154h49.4v23.37A2.79,2.79,0,0,1,162.09,180.15ZM119.67,176h41V158.2h-41Z"/><path class="cls-1" d="M162.77,125.28a2.1,2.1,0,0,1-2.1-2.11V22.48A18.3,18.3,0,0,0,142.39,4.2H35.8A18.3,18.3,0,0,0,17.53,22.48V123.17a2.11,2.11,0,1,1-4.21,0V22.48A22.51,22.51,0,0,1,35.8,0H142.39a22.5,22.5,0,0,1,22.48,22.48V123.17A2.1,2.1,0,0,1,162.77,125.28Z"/><path class="cls-1" d="M164.87,158.2H13.32v-70H164.87ZM17.53,154H160.67V92.37H17.53Z"/><path class="cls-1" d="M38.94,139.4a9.94,9.94,0,1,1,9.94-9.94A10,10,0,0,1,38.94,139.4Zm0-15.68a5.74,5.74,0,1,0,5.73,5.74A5.75,5.75,0,0,0,38.94,123.72Z"/><path class="cls-1" d="M142.39,139.4a9.94,9.94,0,1,1,9.94-9.94A10,10,0,0,1,142.39,139.4Zm0-15.68a5.74,5.74,0,1,0,5.74,5.74A5.74,5.74,0,0,0,142.39,123.72Z"/><path class="cls-1" d="M2.1,83.72A2.1,2.1,0,0,1,0,81.62V45a2.1,2.1,0,1,1,4.2,0V81.62A2.1,2.1,0,0,1,2.1,83.72Z"/><path class="cls-1" d="M176.09,83.72a2.1,2.1,0,0,1-2.1-2.1V45a2.11,2.11,0,1,1,4.21,0V81.62A2.11,2.11,0,0,1,176.09,83.72Z"/><path class="cls-2" d="M137.65,18H38.94a147,147,0,0,1,77.65,54.05h28.59V25.54A7.53,7.53,0,0,0,137.65,18Z"/></g></g></svg>