<svg xmlns="http://www.w3.org/2000/svg" viewBox="0 0 226.18 143.36"><defs><style>.cls-1{fill:#344154;}.cls-2{fill:#ffc524;}</style></defs><g id="Capa_2" data-name="Capa 2"><g id="Layer_1" data-name="Layer 1"><path class="cls-1" d="M223.93,115.75H17.5V20.67L.66,3.83A2.24,2.24,0,0,1,3.83.66L22,18.81v92.45h202a2.25,2.25,0,1,1,0,4.49Z"/><path class="cls-1" d="M53.69,143.36a16.05,16.05,0,1,1,16-16.05A16.07,16.07,0,0,1,53.69,143.36Zm0-27.61a11.56,11.56,0,1,0,11.56,11.56A11.58,11.58,0,0,0,53.69,115.75Z"/><path class="cls-1" d="M183.18,143.36a16.05,16.05,0,1,1,16-16.05A16.06,16.06,0,0,1,183.18,143.36Zm0-27.61a11.56,11.56,0,1,0,11.56,11.56A11.58,11.58,0,0,0,183.18,115.75Z"/><path class="cls-1" d="M203.43,115.75H58.26V31.38A3.78,3.78,0,0,1,62,27.61H199.65a3.77,3.77,0,0,1,3.78,3.77ZM62.75,111.26H198.94V32.09H62.75Z"/><path class="cls-1" d="M158.73,32.36a2.24,2.24,0,0,1-2.24-2.24V19a8.65,8.65,0,0,0-8.65-8.64h-34A8.65,8.65,0,0,0,105.2,19V30.12a2.24,2.24,0,0,1-4.48,0V19A13.14,13.14,0,0,1,113.85,5.83h34A13.15,13.15,0,0,1,161,19V30.12A2.25,2.25,0,0,1,158.73,32.36Z"/><path class="cls-1" d="M146.67,56.91H82.6a2.25,2.25,0,0,1,0-4.49h64.07a2.25,2.25,0,0,1,0,4.49Z"/><path class="cls-1" d="M146.67,76.71H82.6a2.25,2.25,0,0,1,0-4.49h64.07a2.25,2.25,0,0,1,0,4.49Z"/><path class="cls-1" d="M146.67,96.51H82.6a2.25,2.25,0,0,1,0-4.49h64.07a2.25,2.25,0,0,1,0,4.49Z"/><rect class="cls-2" x="162.06" y="41.51" width="22.63" height="58.94"/></g></g></svg>