<svg xmlns="http://www.w3.org/2000/svg" viewBox="0 0 53.3 53.3"><defs><style>.cls-1{fill:#fff;}</style></defs><g id="Capa_2" data-name="Capa 2"><g id="Layer_1" data-name="Layer 1"><path class="cls-1" d="M34.16,42.43h-15a8.28,8.28,0,0,1-8.27-8.27v-15a8.28,8.28,0,0,1,8.27-8.27h15a8.28,8.28,0,0,1,8.27,8.27v15A8.28,8.28,0,0,1,34.16,42.43Zm-15-29.56a6.27,6.27,0,0,0-6.27,6.27v15a6.27,6.27,0,0,0,6.27,6.27h15a6.27,6.27,0,0,0,6.27-6.27v-15a6.27,6.27,0,0,0-6.27-6.27Z"/><path class="cls-1" d="M26.65,34.07a7.42,7.42,0,1,1,7.42-7.42A7.43,7.43,0,0,1,26.65,34.07Zm0-12.85a5.43,5.43,0,1,0,5.43,5.43A5.44,5.44,0,0,0,26.65,21.22Z"/><path class="cls-1" d="M35.17,20.12A1.86,1.86,0,1,1,37,18.26,1.86,1.86,0,0,1,35.17,20.12Zm0-2a.14.14,0,0,0-.14.14c0,.16.28.16.28,0A.14.14,0,0,0,35.17,18.12Z"/><path class="cls-1" d="M39.65,53.3h-26A13.67,13.67,0,0,1,0,39.65v-26A13.66,13.66,0,0,1,13.65,0h26A13.67,13.67,0,0,1,53.3,13.65v26A13.67,13.67,0,0,1,39.65,53.3ZM13.65,2A11.67,11.67,0,0,0,2,13.65v26A11.67,11.67,0,0,0,13.65,51.3h26A11.67,11.67,0,0,0,51.3,39.65v-26A11.67,11.67,0,0,0,39.65,2Z"/></g></g></svg>