<svg xmlns="http://www.w3.org/2000/svg" viewBox="0 0 191.17 183.17"><defs><style>.cls-1{fill:#344154;}.cls-2{fill:#ffc524;}.cls-3{fill:#35b4cf;}</style></defs><g id="Capa_2" data-name="Capa 2"><g id="Layer_1" data-name="Layer 1"><path class="cls-1" d="M115.16,146.17h-8.78a2.26,2.26,0,0,1,0-4.52h8.78a39.48,39.48,0,0,0,22.25-6.83l6.42-4.36a.22.22,0,0,0,.09-.15,8.89,8.89,0,0,0-2.92-2.68,8.61,8.61,0,0,0-8.12,0,30,30,0,0,1-24.43.92l-.25-.13a70.22,70.22,0,0,0-10.68-5.54,43.8,43.8,0,0,0-42.22,5.18,2.26,2.26,0,0,1-2.62-3.68,48.3,48.3,0,0,1,46.55-5.68,75.45,75.45,0,0,1,11.23,5.8,25.94,25.94,0,0,0,20.44-.93,12.89,12.89,0,0,1,16.79,4.28,4.62,4.62,0,0,1-1.33,6.35l-6.42,4.35A43.9,43.9,0,0,1,115.16,146.17Z"/><path class="cls-1" d="M54,159.33a2.26,2.26,0,0,1-.43-4.47c.82-.16,20.53-3.89,55.15-1.92a48.14,48.14,0,0,0,25.23-5.55l52.67-27.79c-1.76-2.12-5.35-4.38-12.37-2.53a18.91,18.91,0,0,0-2.55.92l-26.57,11.33a2.26,2.26,0,1,1-1.77-4.15l26.57-11.33a23.16,23.16,0,0,1,3.16-1.13c10-2.63,15,1.56,17.16,4.3a4.33,4.33,0,0,1-1.38,6.51l-52.81,27.86a52.77,52.77,0,0,1-27.6,6.07c-34-1.93-53.83,1.8-54,1.84A2.09,2.09,0,0,1,54,159.33Z"/><path class="cls-1" d="M55.72,172.05H33.92a2.26,2.26,0,1,1,0-4.51H51.2V121.65H33.92a2.26,2.26,0,1,1,0-4.51h21.8Z"/><rect class="cls-2" y="104.66" width="33.92" height="78.51"/><path class="cls-1" d="M180.82,78.42H128.7a10.36,10.36,0,0,1-10.35-10.34V10.34A10.36,10.36,0,0,1,128.7,0h52.12a10.36,10.36,0,0,1,10.35,10.34V68.08A10.36,10.36,0,0,1,180.82,78.42ZM128.7,4.51a5.84,5.84,0,0,0-5.83,5.83V68.08a5.84,5.84,0,0,0,5.83,5.83h52.12a5.84,5.84,0,0,0,5.83-5.83V10.34a5.84,5.84,0,0,0-5.83-5.83Z"/><path class="cls-1" d="M147.17,61.16H135.85a2.26,2.26,0,0,1,0-4.51h11.32a2.26,2.26,0,1,1,0,4.51Z"/><path class="cls-1" d="M173.66,61.16H162.35a2.26,2.26,0,1,1,0-4.51h11.31a2.26,2.26,0,1,1,0,4.51Z"/><path class="cls-1" d="M162.48,96.13H143.79V83.84a2.26,2.26,0,1,1,4.51,0v7.77H158V83.84a2.26,2.26,0,1,1,4.52,0Z"/><path class="cls-1" d="M153.13,110.22a2.26,2.26,0,0,1-2.25-2.26V93.87a2.26,2.26,0,1,1,4.51,0V108A2.26,2.26,0,0,1,153.13,110.22Z"/><path class="cls-3" d="M135.85,15.77V49.29c11-25.84,37.81-25.36,37.81-25.36V15.77Z"/><path class="cls-1" d="M66.1,76.5A22.3,22.3,0,0,1,43.83,54.22c0-11.46,18.36-36.91,20.45-39.78L66.1,12l1.83,2.49C70,17.31,88.38,42.76,88.38,54.22A22.31,22.31,0,0,1,66.1,76.5Zm0-56.84c-6.25,8.92-17.76,26.92-17.76,34.56a17.77,17.77,0,0,0,35.53,0C83.87,46.58,72.36,28.58,66.1,19.66Z"/><path class="cls-2" d="M71,39a17,17,0,0,1,.82,4.68A20,20,0,0,1,58.25,62.62a11.5,11.5,0,0,0,19.38-8.4C77.63,51.64,74.9,45.74,71,39Z"/></g></g></svg>