<svg xmlns="http://www.w3.org/2000/svg" viewBox="0 0 129.73 164.26"><defs><style>.cls-1{fill:#344154;}.cls-2{fill:#35b4cf;}</style></defs><g id="Capa_2" data-name="Capa 2"><g id="Layer_1" data-name="Layer 1"><path class="cls-1" d="M77,117.29a1.76,1.76,0,0,1-1.26-.52,1.79,1.79,0,0,1,0-2.53l40.7-40.69a10.66,10.66,0,1,0-15.08-15.08L60.65,99.16a1.79,1.79,0,1,1-2.53-2.52l40.7-40.7A14.23,14.23,0,0,1,119,76.07l-40.7,40.7A1.76,1.76,0,0,1,77,117.29Z"/><path class="cls-1" d="M66.69,123.09a1.83,1.83,0,0,1-1.27-.52l-13.1-13.1a1.8,1.8,0,0,1-.29-2.14L57.83,97a1.78,1.78,0,1,1,3.11,1.75l-5.13,9.12L67,119.09l7.07-4-6.93-6.94a1.79,1.79,0,1,1,2.53-2.52l8.59,8.59a1.78,1.78,0,0,1-.38,2.82l-10.31,5.8A1.69,1.69,0,0,1,66.69,123.09Z"/><path class="cls-1" d="M35,151a11,11,0,0,1-7.81-18.85l25.17-25.18a1.8,1.8,0,0,1,2.53,0,1.79,1.79,0,0,1,0,2.53L29.68,134.64a7.48,7.48,0,1,0,10.57,10.58L65.42,120A1.8,1.8,0,0,1,68,120a1.79,1.79,0,0,1,0,2.53L42.78,147.74A11,11,0,0,1,35,151Z"/><path class="cls-1" d="M59.38,71.65c-.41,0-.82,0-1.23,0-7.29-.46-14.09-4.85-18.66-12a32,32,0,0,1-3.41-7.35,1.79,1.79,0,0,1,3.41-1.08,27.6,27.6,0,0,0,3,6.51c3.94,6.22,9.72,10,15.86,10.39a13.31,13.31,0,0,0,11.32-4.58,10.65,10.65,0,0,0,2.23-10,16.56,16.56,0,0,0-10.2-10.53C46,37.38,18.74,51.2,3.08,67.6A1.79,1.79,0,0,1,.49,65.14C14.76,50.2,44.39,33,62.91,39.56A20,20,0,0,1,75.36,52.51a14.31,14.31,0,0,1-2.91,13.23A16.72,16.72,0,0,1,59.38,71.65Z"/><path class="cls-1" d="M117.69,59a1.8,1.8,0,0,1-1.26-.52,1.79,1.79,0,0,1,0-2.53,25.94,25.94,0,0,0,.74-36.2C96.93-1.91,65.85-.17,49.51,15A34.9,34.9,0,0,0,38.1,43.41a1.79,1.79,0,0,1-3.56.29A38.44,38.44,0,0,1,47.08,12.42c17.59-16.37,51-18.32,72.69,4.88A29.5,29.5,0,0,1,119,58.47,1.8,1.8,0,0,1,117.69,59Z"/><path class="cls-1" d="M12.42,164.26a1.79,1.79,0,0,1-1.26-3l16-16a1.79,1.79,0,0,1,2.53,2.52l-16,16A1.8,1.8,0,0,1,12.42,164.26Z"/><path class="cls-1" d="M33,164.25H28.8a1.79,1.79,0,1,1,0-3.57H33a1.79,1.79,0,1,1,0,3.57Z"/><path class="cls-1" d="M112.14,164.25H104a1.79,1.79,0,1,1,0-3.57h8.15a1.79,1.79,0,1,1,0,3.57Zm-19.79,0H84.2a1.79,1.79,0,1,1,0-3.57h8.15a1.79,1.79,0,0,1,0,3.57Zm-19.8,0H64.4a1.79,1.79,0,0,1,0-3.57h8.15a1.79,1.79,0,1,1,0,3.57Zm-19.79,0H44.61a1.79,1.79,0,1,1,0-3.57h8.15a1.79,1.79,0,0,1,0,3.57Z"/><path class="cls-1" d="M128,164.25h-4.17a1.79,1.79,0,0,1,0-3.57H128a1.79,1.79,0,0,1,0,3.57Z"/><path class="cls-2" d="M112.64,62.25a5.31,5.31,0,0,0-7.5,0L70.67,96.71l7.51,7.51,34.46-34.46A5.32,5.32,0,0,0,112.64,62.25Z"/></g></g></svg>