<svg xmlns="http://www.w3.org/2000/svg" viewBox="0 0 219.89 189.67"><defs><style>.cls-1{fill:#344154;}.cls-2{fill:#ffc524;}</style></defs><g id="Capa_2" data-name="Capa 2"><g id="Layer_1" data-name="Layer 1"><path class="cls-1" d="M165,63l-6-15.32h-8.44a2.49,2.49,0,1,1,0-5h11.83l2.82,7.15,9.57-22.48,6,15.33H189a2.49,2.49,0,1,1,0,5H177.37l-2.82-7.16Z"/><path class="cls-1" d="M209.78,90.35h-80a10.11,10.11,0,0,1-10.11-10.1v-5a2.49,2.49,0,0,1,2.49-2.5h95.24a2.5,2.5,0,0,1,2.5,2.5v5A10.12,10.12,0,0,1,209.78,90.35ZM124.64,77.78v2.47a5.13,5.13,0,0,0,5.13,5.12h80a5.13,5.13,0,0,0,5.12-5.12V77.78Z"/><path class="cls-1" d="M211.19,77.78H128.36a2.49,2.49,0,0,1-2.49-2.49V25.89a9.67,9.67,0,0,1,9.66-9.66H204a9.68,9.68,0,0,1,9.67,9.66v49.4A2.5,2.5,0,0,1,211.19,77.78Zm-80.34-5H208.7V25.89A4.69,4.69,0,0,0,204,21.21H135.53a4.69,4.69,0,0,0-4.68,4.68Z"/><path class="cls-1" d="M131.88,155.55a2.49,2.49,0,0,1-2.47-2.2l-3.51-29.13A23,23,0,0,0,118,111.11a18.4,18.4,0,0,0-7.53-4l-22.28-6.46a7.15,7.15,0,0,1-2-1A7.3,7.3,0,0,1,83,94.48l-1-8.75a2.49,2.49,0,1,1,5-.58l1,8.75a2.33,2.33,0,0,0,1,1.66,2.22,2.22,0,0,0,.66.31l22.12,6.42a23.11,23.11,0,0,1,9.47,5,28.07,28.07,0,0,1,9.61,16.06l0,.2,3.51,29.23a2.49,2.49,0,0,1-2.17,2.77Z"/><path class="cls-1" d="M2.5,155.55l-.31,0A2.49,2.49,0,0,1,0,152.76l3.54-29.42a28,28,0,0,1,9.62-16.07,23.26,23.26,0,0,1,9.7-5l21.89-6.36a2.56,2.56,0,0,0,.65-.3,2.35,2.35,0,0,0,1-1.66l.85-7.4A40.61,40.61,0,0,1,34.94,67.16c-4.36-1.4-7.46-6.39-7.46-12.41s3.17-11.19,7.71-12.49a2.5,2.5,0,0,1,1.37,4.8c-2.37.67-4.1,3.91-4.1,7.69,0,4.14,2.07,7.57,4.7,7.81l1.74.16.44,1.69A35.51,35.51,0,0,0,51.45,83.47l1.1.86L51.38,94.48A7.31,7.31,0,0,1,48.2,99.7a7.48,7.48,0,0,1-2,1l-22,6.4a18.48,18.48,0,0,0-7.76,4,23,23,0,0,0-7.88,13.11L5,153.35A2.5,2.5,0,0,1,2.5,155.55Z"/><path class="cls-1" d="M35.87,47.15a2.48,2.48,0,0,1-2.48-2.32c0-.43-.69-10.58,2-19.27a2.49,2.49,0,1,1,4.75,1.49c-2.45,7.78-1.83,17.34-1.83,17.44a2.5,2.5,0,0,1-2.31,2.66Z"/><path class="cls-1" d="M131.88,155.55a2.49,2.49,0,0,1-2.47-2.2l-3.51-29.13A23,23,0,0,0,118,111.11a18.26,18.26,0,0,0-7.6-4l-22.2-6.44a7.54,7.54,0,0,1-2-1A7.34,7.34,0,0,1,83,94.48L81.82,84.33l1.11-.86A35.55,35.55,0,0,0,95,64.41l.45-1.69,1.73-.16c2.64-.24,4.7-3.67,4.7-7.81,0-3.78-1.72-7-4.1-7.69a2.5,2.5,0,0,1,1.37-4.8c4.54,1.3,7.71,6.44,7.71,12.49s-3.1,11-7.46,12.41A40.54,40.54,0,0,1,87.09,86.51l.86,7.4a2.31,2.31,0,0,0,1,1.66,2.47,2.47,0,0,0,.66.3l22,6.4a23.12,23.12,0,0,1,9.53,5,27.93,27.93,0,0,1,9.62,16.07l0,.19,3.51,29.23a2.49,2.49,0,0,1-2.17,2.77Z"/><path class="cls-1" d="M98.5,47.15h-.17A2.51,2.51,0,0,1,96,44.49c0-.1.62-9.66-1.83-17.44a2.49,2.49,0,0,1,4.76-1.49c2.73,8.69,2.07,18.84,2,19.27A2.48,2.48,0,0,1,98.5,47.15Z"/><path class="cls-1" d="M67.19,114.38A22.64,22.64,0,0,1,52,108.58l-8.58-7.68a2.49,2.49,0,0,1,3.32-3.71l8.59,7.68a17.7,17.7,0,0,0,23.64,0l8.58-7.68a2.49,2.49,0,1,1,3.32,3.71l-8.58,7.68A22.63,22.63,0,0,1,67.19,114.38Z"/><path class="cls-1" d="M150.67,189.67H84.22a21.62,21.62,0,0,1-21.6-21.6,2.5,2.5,0,0,1,5,0,16.63,16.63,0,0,0,16.61,16.61h66.45a16.63,16.63,0,0,0,16.61-16.61V87.86a2.49,2.49,0,1,1,5,0v80.21A21.62,21.62,0,0,1,150.67,189.67Z"/><path class="cls-1" d="M36.74,147.08A10.18,10.18,0,1,1,46.93,136.9,10.2,10.2,0,0,1,36.74,147.08Zm0-15.38a5.2,5.2,0,1,0,5.2,5.2A5.2,5.2,0,0,0,36.74,131.7Z"/><path class="cls-2" d="M36.74,138.5a1.61,1.61,0,1,1,1.61-1.6A1.6,1.6,0,0,1,36.74,138.5Z"/><path class="cls-2" d="M65.12,138.5a1.61,1.61,0,1,1,1.6-1.6A1.61,1.61,0,0,1,65.12,138.5Z"/><path class="cls-2" d="M93.49,138.5a1.61,1.61,0,1,1,1.6-1.6A1.61,1.61,0,0,1,93.49,138.5Z"/><path class="cls-1" d="M65.12,147.08A10.18,10.18,0,1,1,75.3,136.9,10.2,10.2,0,0,1,65.12,147.08Zm0-15.38a5.2,5.2,0,1,0,5.19,5.2A5.2,5.2,0,0,0,65.12,131.7Z"/><path class="cls-1" d="M93.49,147.08a10.18,10.18,0,1,1,10.18-10.18A10.2,10.2,0,0,1,93.49,147.08Zm0-15.38a5.2,5.2,0,1,0,5.19,5.2A5.2,5.2,0,0,0,93.49,131.7Z"/><path class="cls-1" d="M65.12,170.56A30.22,30.22,0,0,1,37.3,152.21l-2.85-6.64a2.5,2.5,0,0,1,4.59-2l2.84,6.64a25.27,25.27,0,0,0,46.47,0l2.85-6.64a2.49,2.49,0,0,1,4.58,2l-2.85,6.64A30.21,30.21,0,0,1,65.12,170.56Z"/><path class="cls-1" d="M65.12,158.82a2.5,2.5,0,0,1-2.5-2.49V144.59a2.5,2.5,0,1,1,5,0v11.74A2.5,2.5,0,0,1,65.12,158.82Z"/><path class="cls-1" d="M96.56,28.8a2.48,2.48,0,0,1-2.41-1.88C93.91,26,88.2,5,67.19,5s-26.73,21.05-27,22a2.49,2.49,0,0,1-4.83-1.24C35.46,25.43,42.24,0,67.19,0S98.91,25.43,99,25.69a2.49,2.49,0,0,1-1.79,3A2.7,2.7,0,0,1,96.56,28.8Z"/><path class="cls-2" d="M67.19,10.8c-16.65,0-21.29,17.38-21.33,17.56,0,0-.2.73-.49,1.9,4.6,1.68,11.7,1.79,22.1-4A29.76,29.76,0,0,1,86.35,23C83.61,17.82,77.94,10.8,67.19,10.8Z"/></g></g></svg>