<svg xmlns="http://www.w3.org/2000/svg" viewBox="0 0 18.49 22.88"><defs><style>.cls-1{fill:#344154;}</style></defs><g id="Capa_2" data-name="Capa 2"><g id="social_posts" data-name="social posts"><path class="cls-1" d="M2.77,15a.51.51,0,0,1-.44-.26A20.53,20.53,0,0,1,0,6.84C-.09,4.81.11,1.91,3.15.3A2.65,2.65,0,0,1,6.72,1.41l1.2,2.28A2.64,2.64,0,0,1,6.81,7.25l-.89.48.4.83a.5.5,0,0,1-.22.66A.48.48,0,0,1,5.45,9L4.62,7.31l1.74-.92a1.67,1.67,0,0,0,.69-2.25L5.86,1.87a1.67,1.67,0,0,0-2.25-.7C1.64,2.21.84,3.94,1,6.79a19.85,19.85,0,0,0,2.2,7.47.48.48,0,0,1-.21.66A.46.46,0,0,1,2.77,15Z"/><path class="cls-1" d="M12,22.88a7.42,7.42,0,0,1-4.47-1.82,20.24,20.24,0,0,1-5.18-6.34.49.49,0,0,1,.21-.66.48.48,0,0,1,.66.2,19.78,19.78,0,0,0,4.91,6c2.29,1.76,4.11,2.07,6.1,1a1.65,1.65,0,0,0,.7-2.24l-1.2-2.28a1.66,1.66,0,0,0-2.22-.71A13.46,13.46,0,0,1,9.86,17l-.4.14L4.83,7.73a.48.48,0,0,1,.22-.65.5.5,0,0,1,.66.22l4.22,8.59L11,15.25l0,0a2.64,2.64,0,0,1,3.56,1.1l1.2,2.28a2.65,2.65,0,0,1,.19,2,2.62,2.62,0,0,1-1.3,1.56A5.74,5.74,0,0,1,12,22.88Z"/><path class="cls-1" d="M17.7,14.29l-.13,0a.49.49,0,0,1-.35-.6,8.14,8.14,0,0,0-5.7-10,.49.49,0,0,1-.34-.6.48.48,0,0,1,.6-.34,9.13,9.13,0,0,1,6.39,11.2A.5.5,0,0,1,17.7,14.29Z"/><path class="cls-1" d="M14.88,13.52l-.13,0a.49.49,0,0,1-.34-.6,5.22,5.22,0,0,0-3.66-6.42A.49.49,0,1,1,11,5.54a6.12,6.12,0,0,1,3.75,2.91,6.2,6.2,0,0,1,.6,4.71A.49.49,0,0,1,14.88,13.52Z"/></g></g></svg>