<svg xmlns="http://www.w3.org/2000/svg" viewBox="0 0 18.75 18.18"><defs><style>.cls-1{fill:#344154;}</style></defs><g id="Capa_2" data-name="Capa 2"><g id="social_posts" data-name="social posts"><path class="cls-1" d="M18.75,18.18H0l3.49-7.43h2a.38.38,0,0,1,0,.76H4L1.2,17.41H17.55l-2.77-5.9H13.33a.38.38,0,0,1,0-.76h1.93Z"/><path class="cls-1" d="M9.37,13.48l-.28-.34C8.91,12.93,4.77,8,4.77,4.61a4.61,4.61,0,1,1,9.21,0c0,3.51-4.14,8.33-4.32,8.53ZM9.38.76A3.86,3.86,0,0,0,5.53,4.61c0,2.64,2.91,6.5,3.85,7.68.94-1.16,3.84-5,3.84-7.68A3.85,3.85,0,0,0,9.38.76Z"/><path class="cls-1" d="M9.38,7.29A2.62,2.62,0,1,1,12,4.67,2.62,2.62,0,0,1,9.38,7.29Zm0-4.47a1.86,1.86,0,1,0,1.85,1.85A1.85,1.85,0,0,0,9.38,2.82Z"/></g></g></svg>