<svg xmlns="http://www.w3.org/2000/svg" viewBox="0 0 53.3 53.3"><defs><style>.cls-1{fill:#fff;}</style></defs><g id="Capa_2" data-name="Capa 2"><g id="Layer_1" data-name="Layer 1"><path class="cls-1" d="M26.71,38.81c-6,0-9.65-.23-11.28-.36-3.21-.3-5.1-2.05-5.5-5.07-.12-.79-.23-2.29-.33-4.44-.07-1.52-.07-3.06,0-4.58.1-2.15.21-3.65.33-4.46.4-3,2.3-4.75,5.49-5,1.64-.14,5.28-.37,11.25-.37s9.64.23,11.28.37c3.2.3,5.1,2,5.49,5.06.12.79.23,2.29.33,4.45h0a43.73,43.73,0,0,1,0,4.58c-.1,2.16-.21,3.66-.33,4.46-.39,3-2.29,4.75-5.48,5.05C36.31,38.58,32.67,38.81,26.71,38.81Zm0-22.33c-5.94,0-9.51.23-11.12.36-2.27.21-3.4,1.24-3.68,3.33-.11.75-.22,2.22-.32,4.28-.07,1.46-.07,2.94,0,4.4.1,2,.21,3.53.32,4.26.28,2.11,1.41,3.14,3.69,3.35,1.6.13,5.17.36,11.07.36s9.51-.23,11.11-.36c2.27-.21,3.41-1.24,3.68-3.34.11-.73.22-2.21.32-4.27.07-1.46.07-2.94,0-4.4h0c-.1-2.06-.21-3.54-.31-4.26-.28-2.11-1.42-3.14-3.7-3.35C36.18,16.71,32.6,16.48,26.71,16.48Z"/><path class="cls-1" d="M23.31,33.25a1.25,1.25,0,0,1-.55-.14,1.14,1.14,0,0,1-.59-1V21.18a1.14,1.14,0,0,1,1.76-1l8.54,5.48a1.15,1.15,0,0,1,.52,1,1.14,1.14,0,0,1-.53,1l-8.53,5.46A1.15,1.15,0,0,1,23.31,33.25Zm-.46-1.86Zm1.32-8.65v7.81l6.1-3.9Zm7.22,4.63Zm0-1.44Z"/><path class="cls-1" d="M39.65,53.3h-26A13.67,13.67,0,0,1,0,39.65v-26A13.66,13.66,0,0,1,13.65,0h26A13.67,13.67,0,0,1,53.3,13.65v26A13.67,13.67,0,0,1,39.65,53.3ZM13.65,2A11.67,11.67,0,0,0,2,13.65v26A11.67,11.67,0,0,0,13.65,51.3h26A11.67,11.67,0,0,0,51.3,39.65v-26A11.67,11.67,0,0,0,39.65,2Z"/></g></g></svg>