<svg id="Layer_1" data-name="Layer 1" xmlns="http://www.w3.org/2000/svg" viewBox="0 0 595.28 595.28"><defs><style>.cls-1{fill:#e7e7f4;}.cls-2{fill:#d8d9ee;}.cls-3{fill:#d0d0eb;}.cls-4{fill:#4b96f5;}.cls-5{fill:#9ae2f5;}.cls-6{fill:#485fcf;}.cls-7{fill:#d2d3e8;}.cls-8{fill:#afafe5;}.cls-9{fill:#fff;}.cls-10{fill:#f28110;}.cls-11{fill:#ff9c4a;}.cls-12{fill:#d83f2e;}.cls-13{fill:#f4efd2;}.cls-14{fill:#000f1c;}.cls-15{fill:#393954;}.cls-16{fill:#3e4fb3;}.cls-17{fill:#0b9ba6;}.cls-18{fill:#aeaecf;}.cls-19{fill:#737395;}.cls-20{fill:#8e8db5;}.cls-21{fill:#737397;}.cls-22{fill:#5d5d80;}.cls-23{fill:#1b1b2b;}.cls-24{fill:#07070c;}.cls-25{fill:#67beff;}.cls-26{fill:#2d469c;}.cls-27{fill:#122760;}.cls-28{fill:#c52e41;}.cls-29{fill:#e8313a;}.cls-30{fill:#911e41;}</style></defs><path class="cls-1" d="M85.39,112.21C85,110.6,84,108,82.76,108.27c-.62.15-.82,1-.83,1.93-.17.3-1.29,1.82-5.8,2.68l-6.06.88a22.39,22.39,0,0,0-5.3-8.34l2.88-3.57a5.93,5.93,0,0,1,3-2.16c.89.47,1.5.54,1.82.19s.22-.87-.24-1.62a9.36,9.36,0,0,0-1.71-2,10.08,10.08,0,0,0-2.13-1.53c-.79-.38-1.34-.41-1.64-.09s-.2.94.34,1.77c0,.26,0,1.94-3,4.8l-2.12,1.89A22.73,22.73,0,0,0,53,99.21l-.35-1.46a5.73,5.73,0,0,1,.59-3.62l.05,0c.86-.31,1.27-.71,1.24-1.19-.07-1.12-2.55-1.26-4-1.16s-3.88.56-3.81,1.68a.85.85,0,0,0,0,.17c.12.39.57.68,1.35.85l.28.05c.28.3,1.08,1.39,1.21,4.32A22.41,22.41,0,0,0,42,99.89c-.5.15-1,.33-1.47.52l-2.09-5A6.17,6.17,0,0,1,38,91.52c.9-.6,1.25-1.14,1.09-1.66s-.73-.69-1.7-.65a10.23,10.23,0,0,0-2.75.6c-1.46.5-3.82,1.66-3.47,2.77v0c.17.5.8.71,1.87.63.27.13,1.78,1,3,5.15l.91,3.88a22.4,22.4,0,0,0-5.4,4.76l-3.54-1.11a5.7,5.7,0,0,1-2.8-2.37c.16-.79.11-1.47-.38-1.72s-1,0-1.58.66a9.86,9.86,0,0,0-1.47,2.17c-.53,1-1.18,2.75-.9,3.65a.81.81,0,0,0,.39.49c.43.22,1,0,1.59-.67.06-.06.12-.14.18-.21.41-.1,1.87-.25,4.77,1.41l1.55.86a22.71,22.71,0,0,0-2.67,7.44l-6-.19A7.56,7.56,0,0,1,16,116c-.18-1.11-.55-1.93-1.2-2-1.19-.11-2,2.39-2.19,4.77a11.16,11.16,0,0,0,.24,3.93c.22.67.55,1.11,1,1.16s1.06-.45,1.47-1.49c0-.07.05-.15.07-.21.25-.22,2-1.5,7.19-.69l3.7.73a22.34,22.34,0,0,0,4.2,12.31l-1.27,1.06a5.74,5.74,0,0,1-3.43,1.08c-.7-.72-1.28-1-1.72-.72s-.53.81-.32,1.7c0,.15.08.3.13.46a10.28,10.28,0,0,0,.88,1.95,9.78,9.78,0,0,0,1.55,2.11c.65.63,1.2.83,1.62.59s.52-.86.27-1.83c.08-.28.62-1.68,3.79-3.33l.75-.4A22.64,22.64,0,0,0,42,142.86l-1.19,7.85A7.1,7.1,0,0,1,39,154.8h-.24c-1.06.08-1.66.39-1.77.92a.81.81,0,0,0,0,.41c.3,1,2.28,1.78,4.21,2.2a11.85,11.85,0,0,0,3.16.29c1.07-.08,1.66-.39,1.78-.92s-.3-1.06-1.24-1.57l-.19-.09c-.18-.26-1.16-2,.17-6.78l1.76-5.43a22.48,22.48,0,0,0,8-.63l.83,3a7.09,7.09,0,0,1,0,4.43l-.21.1c-.93.5-1.35,1-1.24,1.55,0,0,0,.06,0,.08q.24.72,1.74.84a11.59,11.59,0,0,0,3.13-.28c2.19-.46,4.44-1.46,4.21-2.57-.12-.52-.71-.83-1.76-.91h-.2c-.27-.17-1.87-1.35-2.6-6.19l-.15-1.37a22.32,22.32,0,0,0,6.59-4.65l1.49.89a7.61,7.61,0,0,1,3.29,3.46c-.44,1.2-.41,2,.09,2.32,1,.67,2.87-1.15,4.22-3.11a12.74,12.74,0,0,0,1.54-3c.34-1.06.28-1.76-.19-2.08s-1.22-.08-2.17.75c-.3.06-2.16.31-5.79-2.26a22.81,22.81,0,0,0,3-6.37,3.17,3.17,0,0,1,.43,0l5.4.26a5.69,5.69,0,0,1,3.32,1.58,3,3,0,0,0,.13.83,1,1,0,0,0,.67.74h0c1.1.24,1.91-2.1,2.22-3.52s.54-3.89-.55-4.13c-.6-.13-1.1.49-1.49,1.31-.38.2-1.75.7-5-.17l-3.74-.94a4,4,0,0,1-.59-.23,22.43,22.43,0,0,0-.11-5.3l7.89-2.51a6.69,6.69,0,0,1,4.23-.15l.09.19c.52.88,1,1.26,1.55,1.13s.79-.71.83-1.73A11,11,0,0,0,85.39,112.21Z"/><path class="cls-1" d="M68.15,29c-.2-.82-.72-2.17-1.34-2-.32.08-.42.49-.42,1-.09.15-.66.93-3,1.37l-3.09.45a11.49,11.49,0,0,0-2.7-4.26l1.47-1.82a3,3,0,0,1,1.56-1.1c.45.24.76.27.92.09s.11-.44-.12-.82a5.52,5.52,0,0,0-2-1.8c-.4-.2-.68-.22-.84-.05s-.1.48.17.9c0,.14,0,1-1.51,2.46l-1.08,1a11.73,11.73,0,0,0-4.63-2l-.18-.74a2.92,2.92,0,0,1,.3-1.85h0c.43-.16.65-.36.63-.61,0-.57-1.3-.64-2-.59s-2,.28-1.94.86a.28.28,0,0,0,0,.09c.07.19.3.34.69.43l.15,0a3.46,3.46,0,0,1,.61,2.21,11.54,11.54,0,0,0-3.87.54c-.26.08-.5.17-.75.27l-1.07-2.56a3.13,3.13,0,0,1-.24-2c.46-.31.64-.59.56-.85s-.38-.35-.87-.33a5.59,5.59,0,0,0-1.41.3c-.74.26-1.95.85-1.77,1.42h0c.08.25.41.36.95.32.14.06.91.52,1.51,2.63l.46,2a11.48,11.48,0,0,0-2.76,2.43l-1.8-.57a2.88,2.88,0,0,1-1.43-1.21c.08-.4.06-.75-.19-.88s-.49,0-.81.34a5,5,0,0,0-.75,1.11A3.19,3.19,0,0,0,35.18,27a.42.42,0,0,0,.2.25c.22.11.49,0,.81-.34l.09-.11a3.65,3.65,0,0,1,2.43.72l.8.44a11.6,11.6,0,0,0-1.36,3.8l-3.09-.1a3.93,3.93,0,0,1-2.33-.73c-.09-.57-.28-1-.61-1-.6-.05-1,1.22-1.11,2.43a5.58,5.58,0,0,0,.12,2c.11.34.28.57.52.59s.54-.23.75-.76a.76.76,0,0,1,0-.11c.12-.11,1-.76,3.66-.35l1.89.38a11.92,11.92,0,0,0,.53,3.08,11.73,11.73,0,0,0,1.61,3.2l-.64.54a2.94,2.94,0,0,1-1.75.55c-.36-.37-.66-.49-.88-.36s-.27.41-.16.86a2.1,2.1,0,0,0,.06.24,5,5,0,0,0,.45,1A4.87,4.87,0,0,0,38,44.23c.34.32.61.42.83.3s.27-.44.14-.93c0-.15.31-.86,1.93-1.7l.38-.21A11.57,11.57,0,0,0,46,44.59l-.61,4a3.59,3.59,0,0,1-.94,2.09h-.12c-.54,0-.85.2-.9.47a.38.38,0,0,0,0,.21c.15.48,1.16.9,2.15,1.12a5.91,5.91,0,0,0,1.61.14c.54,0,.85-.19.91-.46s-.16-.54-.64-.8l-.09,0c-.09-.14-.59-1,.08-3.46l.9-2.77a11.51,11.51,0,0,0,4.07-.33l.42,1.51a3.59,3.59,0,0,1,0,2.27l-.1.05c-.48.26-.69.52-.63.79,0,0,0,0,0,0,.07.25.37.39.88.43a6.23,6.23,0,0,0,1.6-.14c1.12-.24,2.27-.75,2.15-1.31-.06-.27-.36-.43-.9-.47h-.1c-.14-.09-1-.7-1.33-3.16l-.07-.7a11.56,11.56,0,0,0,3.36-2.38l.76.46a3.9,3.9,0,0,1,1.68,1.76c-.23.62-.21,1,0,1.19.51.34,1.47-.59,2.16-1.59A6.11,6.11,0,0,0,63.13,42c.18-.55.15-.9-.09-1.07s-.63,0-1.11.38c-.15,0-1.1.16-3-1.15a11.44,11.44,0,0,0,1.55-3.25l.22,0,2.76.13a2.92,2.92,0,0,1,1.69.8,1.76,1.76,0,0,0,.07.43.49.49,0,0,0,.34.38h0c.56.12,1-1.08,1.14-1.8s.27-2-.29-2.11c-.3-.06-.56.25-.76.67a3.64,3.64,0,0,1-2.53-.08l-1.91-.49a1.65,1.65,0,0,1-.31-.11A11.19,11.19,0,0,0,60.9,32l4-1.28a3.47,3.47,0,0,1,2.16-.08l0,.1c.27.45.53.64.79.58s.4-.36.42-.89A5.53,5.53,0,0,0,68.15,29Z"/><path class="cls-1" d="M231.56,28.76c-.14-.58-.5-1.52-.93-1.41-.23.06-.3.35-.3.69-.06.11-.46.65-2.07.95l-2.16.32a7.89,7.89,0,0,0-1.88-3l1-1.27a2.1,2.1,0,0,1,1.09-.77c.32.17.53.19.65.06s.07-.31-.09-.57a3.15,3.15,0,0,0-.6-.71,3.47,3.47,0,0,0-.77-.55c-.28-.14-.47-.15-.58,0s-.07.33.12.63c0,.09,0,.69-1.06,1.71l-.75.67A8.09,8.09,0,0,0,220,24.13l-.12-.53a1.91,1.91,0,0,1,.21-1.28h0q.47-.16.45-.42c0-.4-.91-.45-1.43-.42s-1.38.2-1.36.6c0,0,0,0,0,.06s.2.24.48.3l.1,0a2.45,2.45,0,0,1,.43,1.54,7.88,7.88,0,0,0-2.7.38c-.18.05-.35.12-.53.18l-.74-1.78a2.2,2.2,0,0,1-.17-1.38c.32-.22.44-.41.39-.59s-.27-.25-.61-.23a3.26,3.26,0,0,0-1,.21c-.52.18-1.36.59-1.23,1h0c.06.18.28.26.67.23.09,0,.63.36,1,1.83l.33,1.38a7.82,7.82,0,0,0-1.92,1.7l-1.26-.4a2,2,0,0,1-1-.84c.05-.28,0-.53-.14-.62s-.34,0-.56.24a3.68,3.68,0,0,0-.52.77,2.27,2.27,0,0,0-.32,1.3.28.28,0,0,0,.14.18c.15.07.34,0,.56-.24l.07-.08a2.52,2.52,0,0,1,1.69.51l.56.3a8.09,8.09,0,0,0-1,2.65l-2.16-.07a2.63,2.63,0,0,1-1.62-.51c-.06-.39-.2-.69-.43-.71-.42,0-.7.86-.77,1.7a3.9,3.9,0,0,0,.08,1.4c.08.24.2.4.36.41s.38-.16.53-.53c0,0,0,0,0-.07s.7-.53,2.56-.25l1.32.26a7.64,7.64,0,0,0,.37,2.15A8.25,8.25,0,0,0,212,36.7l-.45.37a2,2,0,0,1-1.22.39c-.25-.26-.46-.35-.61-.26s-.19.29-.12.61c0,0,0,.1,0,.16a4.18,4.18,0,0,0,.31.7,3.33,3.33,0,0,0,.56.75q.34.33.57.21c.16-.09.19-.31.1-.66,0-.09.22-.59,1.35-1.18l.26-.14a8.18,8.18,0,0,0,3.3,2l-.43,2.8a2.61,2.61,0,0,1-.65,1.45h-.09q-.57,0-.63.33a.26.26,0,0,0,0,.15c.11.33.81.63,1.5.78a4.18,4.18,0,0,0,1.12.1c.38,0,.6-.14.64-.33s-.11-.37-.45-.55l-.06,0c-.07-.09-.41-.72.06-2.41l.63-1.94a7.8,7.8,0,0,0,2.83-.22l.29,1.05a2.48,2.48,0,0,1,0,1.58l-.07,0c-.34.18-.48.36-.44.55v0c.06.17.27.27.62.3a4.18,4.18,0,0,0,1.12-.1c.78-.17,1.58-.52,1.49-.92,0-.18-.25-.29-.62-.32h-.07c-.1-.06-.67-.49-.93-2.21l0-.49a8,8,0,0,0,2.34-1.65l.53.31A2.71,2.71,0,0,1,226,39.2c-.16.42-.15.7,0,.82.35.24,1-.41,1.5-1.11a4.32,4.32,0,0,0,.55-1.06c.12-.38.1-.63-.07-.74s-.43,0-.77.27c-.11,0-.77.11-2.06-.81a7.9,7.9,0,0,0,1.08-2.27l.16,0,1.92.09a1.94,1.94,0,0,1,1.18.57,1.25,1.25,0,0,0,.05.29.32.32,0,0,0,.24.26h0c.39.09.68-.74.79-1.25s.19-1.38-.2-1.47c-.21,0-.39.18-.53.47a2.54,2.54,0,0,1-1.77-.06l-1.33-.34-.21-.08a8,8,0,0,0,0-1.89l2.81-.89a2.36,2.36,0,0,1,1.51-.05l0,.06c.18.32.37.45.55.41s.28-.26.3-.62A3.87,3.87,0,0,0,231.56,28.76Z"/><path class="cls-1" d="M48.51,398.48c-.21-.82-.72-2.15-1.33-2-.32.08-.42.49-.42,1-.09.15-.66.92-2.94,1.36l-3.07.44A11.42,11.42,0,0,0,38.07,395l1.46-1.81a3,3,0,0,1,1.54-1.09c.45.24.76.27.92.09s.11-.44-.12-.82a5.32,5.32,0,0,0-.86-1,5.12,5.12,0,0,0-1.09-.77c-.4-.2-.67-.21-.82-.05s-.11.48.16.89c0,.14,0,1-1.5,2.44l-1.07,1a11.55,11.55,0,0,0-4.59-2l-.18-.74a2.81,2.81,0,0,1,.3-1.83h0c.44-.15.65-.36.63-.6,0-.57-1.29-.64-2-.59s-2,.28-1.93.85a.28.28,0,0,0,0,.09c.07.2.3.34.69.43l.14,0a3.33,3.33,0,0,1,.61,2.19,11.36,11.36,0,0,0-3.84.54l-.74.26L24.73,390a3.21,3.21,0,0,1-.25-2c.46-.3.64-.58.56-.84s-.38-.35-.86-.33a5.52,5.52,0,0,0-1.4.3c-.74.26-1.93.84-1.75,1.41h0c.09.25.41.36.95.32.14.06.9.51,1.49,2.61l.47,2a11.12,11.12,0,0,0-2.74,2.41l-1.79-.56a2.88,2.88,0,0,1-1.42-1.2c.08-.4.05-.75-.19-.88s-.49,0-.81.34a5.25,5.25,0,0,0-.74,1.1,3.15,3.15,0,0,0-.45,1.85.39.39,0,0,0,.19.24c.22.12.49,0,.81-.33l.09-.11a3.55,3.55,0,0,1,2.41.71l.79.44a11.65,11.65,0,0,0-1.35,3.77l-3.06-.1a3.84,3.84,0,0,1-2.31-.73c-.09-.56-.28-1-.61-1-.6-.05-1,1.22-1.11,2.42a5.47,5.47,0,0,0,.13,2c.1.34.27.56.51.58s.54-.22.75-.75l0-.11c.13-.11,1-.75,3.64-.35l1.87.37a11.35,11.35,0,0,0,2.13,6.24l-.64.53a2.94,2.94,0,0,1-1.74.56c-.35-.37-.65-.49-.87-.37s-.27.41-.16.86c0,.07,0,.15.07.23a4.94,4.94,0,0,0,.44,1,4.72,4.72,0,0,0,.79,1.07q.49.48.81.3c.22-.13.27-.44.14-.93,0-.14.32-.85,1.92-1.68l.38-.21A11.56,11.56,0,0,0,26.53,414l-.6,4A3.57,3.57,0,0,1,25,420h-.11c-.54,0-.85.19-.9.46a.38.38,0,0,0,0,.21c.15.48,1.15.9,2.13,1.11a5.92,5.92,0,0,0,1.6.15c.54,0,.84-.2.9-.47s-.15-.53-.63-.79l-.09-.05c-.09-.13-.59-1,.08-3.43l.9-2.75a11.53,11.53,0,0,0,4-.32l.41,1.5a3.52,3.52,0,0,1,0,2.24l-.11,0c-.47.26-.68.52-.62.79a.06.06,0,0,0,0,0c.08.24.37.38.88.42a5.34,5.34,0,0,0,1.58-.14c1.11-.23,2.25-.74,2.13-1.3,0-.26-.35-.42-.89-.46h-.1c-.14-.09-.94-.69-1.31-3.14l-.08-.69a11.35,11.35,0,0,0,3.34-2.36l.75.45a3.85,3.85,0,0,1,1.67,1.75c-.23.61-.21,1,0,1.18.5.34,1.46-.58,2.14-1.58a6.61,6.61,0,0,0,.78-1.51q.26-.81-.09-1.05c-.25-.17-.62,0-1.1.38-.16,0-1.1.15-2.94-1.15A11.68,11.68,0,0,0,41,406.37a1.07,1.07,0,0,1,.21,0l2.74.13a2.91,2.91,0,0,1,1.68.8,1.67,1.67,0,0,0,.07.42.5.5,0,0,0,.33.38h0c.56.12,1-1.06,1.13-1.78s.28-2-.28-2.09c-.3-.07-.56.25-.76.66a3.56,3.56,0,0,1-2.51-.09l-1.89-.48a1,1,0,0,1-.3-.11,11.47,11.47,0,0,0-.06-2.68l4-1.28a3.45,3.45,0,0,1,2.14-.07.73.73,0,0,0,0,.09c.26.45.52.64.78.58s.4-.36.42-.88A5.42,5.42,0,0,0,48.51,398.48Z"/><path class="cls-1" d="M577.14,512.49c-.6-2.37-2.08-6.26-3.87-5.81-.92.23-1.22,1.42-1.22,2.85-.27.43-1.91,2.68-8.55,3.94l-8.93,1.3a32.92,32.92,0,0,0-7.8-12.29l4.25-5.25a8.7,8.7,0,0,1,4.49-3.18c1.3.7,2.2.79,2.67.28s.32-1.28-.35-2.39a14,14,0,0,0-2.51-2.94,14.42,14.42,0,0,0-3.15-2.25c-1.15-.57-2-.61-2.4-.13s-.3,1.38.49,2.6c0,.39,0,2.86-4.37,7.08l-3.13,2.78a33.39,33.39,0,0,0-13.34-5.74l-.52-2.15a8.36,8.36,0,0,1,.88-5.33l.07,0c1.26-.46,1.87-1,1.82-1.76-.11-1.65-3.75-1.85-5.88-1.71s-5.72.82-5.61,2.48a1.17,1.17,0,0,0,0,.26c.19.57.85,1,2,1.24l.41.07c.42.44,1.58,2.06,1.77,6.37a33.26,33.26,0,0,0-11.17,1.55c-.73.23-1.45.5-2.15.78L508,487.73a9.27,9.27,0,0,1-.71-5.71c1.33-.88,1.85-1.68,1.62-2.45s-1.09-1-2.51-.94a14.87,14.87,0,0,0-4.05.87c-2.15.74-5.63,2.44-5.1,4.09v0c.26.74,1.19,1.05,2.76.93.4.18,2.62,1.49,4.34,7.59l1.35,5.7a33,33,0,0,0-8,7l-5.21-1.64a8.27,8.27,0,0,1-4.12-3.48c.23-1.16.16-2.17-.56-2.54s-1.41,0-2.33,1a14.35,14.35,0,0,0-2.16,3.2c-.78,1.53-1.74,4.05-1.32,5.37a1.19,1.19,0,0,0,.57.72c.63.32,1.42,0,2.34-1,.09-.09.18-.21.27-.31.6-.14,2.75-.37,7,2.08l2.29,1.27a33.33,33.33,0,0,0-3.93,11l-8.9-.28A11.06,11.06,0,0,1,475,518c-.26-1.63-.81-2.83-1.77-2.92-1.74-.16-2.89,3.52-3.21,7a15.87,15.87,0,0,0,.35,5.78c.31,1,.8,1.64,1.5,1.71s1.55-.66,2.16-2.19c0-.1.07-.21.11-.31.37-.32,2.9-2.2,10.57-1l5.45,1.08a33.13,33.13,0,0,0,6.18,18.13l-1.85,1.55a8.52,8.52,0,0,1-5.06,1.6c-1-1.07-1.89-1.42-2.54-1.06s-.77,1.19-.46,2.49c.05.22.11.45.19.69a15.11,15.11,0,0,0,1.29,2.87,14,14,0,0,0,2.29,3.1c1,.93,1.76,1.23,2.37.88s.78-1.27.41-2.7c.11-.41.91-2.48,5.58-4.9l1.1-.6a33.44,33.44,0,0,0,13.61,8.37l-1.75,11.56a10.44,10.44,0,0,1-2.72,6h-.34c-1.57.11-2.45.56-2.62,1.34a1.15,1.15,0,0,0,0,.61c.44,1.39,3.35,2.62,6.2,3.23a17.25,17.25,0,0,0,4.65.43c1.57-.12,2.45-.57,2.61-1.35s-.44-1.56-1.82-2.31l-.28-.13c-.26-.39-1.7-3,.25-10l2.6-8a32.73,32.73,0,0,0,11.72-.93l1.21,4.36a10.3,10.3,0,0,1,0,6.53l-.3.15c-1.37.74-2,1.51-1.82,2.28l0,.12c.22.71,1.08,1.12,2.56,1.23a16.87,16.87,0,0,0,4.61-.4c3.22-.69,6.53-2.16,6.19-3.79-.17-.77-1-1.23-2.59-1.34h-.3c-.4-.25-2.74-2-3.82-9.11l-.22-2a32.82,32.82,0,0,0,9.7-6.85l2.19,1.3a11.2,11.2,0,0,1,4.85,5.1c-.65,1.77-.6,2.92.13,3.42,1.45,1,4.23-1.69,6.21-4.59a17.85,17.85,0,0,0,2.26-4.39c.51-1.56.42-2.59-.26-3.06s-1.81-.13-3.2,1.09c-.44.1-3.19.46-8.52-3.32a33.34,33.34,0,0,0,4.48-9.38,4.33,4.33,0,0,1,.63.08l8,.38a8.37,8.37,0,0,1,4.88,2.32,4.59,4.59,0,0,0,.2,1.23,1.4,1.4,0,0,0,1,1.08h0c1.62.36,2.82-3.09,3.28-5.18s.79-5.72-.83-6.08c-.87-.19-1.61.73-2.19,1.93-.55.29-2.57,1-7.31-.24l-5.5-1.4a4.58,4.58,0,0,1-.88-.33,32.39,32.39,0,0,0-.16-7.8l11.62-3.71a9.91,9.91,0,0,1,6.23-.21c.05.08.09.19.14.27.76,1.3,1.52,1.86,2.27,1.67s1.16-1,1.22-2.54A16.31,16.31,0,0,0,577.14,512.49Z"/><ellipse class="cls-1" cx="301.27" cy="294.58" rx="248.99" ry="212.24"/><path class="cls-2" d="M301.27,166.34c120.64,0,221.24,73.14,244.1,170.24a182.73,182.73,0,0,0,4.89-42c0-117.21-111.48-212.24-249-212.24s-249,95-249,212.24a182.73,182.73,0,0,0,4.89,42C80,239.48,180.63,166.34,301.27,166.34Z"/><path class="cls-3" d="M301.27,102.34c133.58,0,242.58,89.68,248.7,202.25q.28-5,.29-10c0-117.21-111.48-212.24-249-212.24s-249,95-249,212.24c0,3.36.1,6.7.28,10C58.68,192,167.69,102.34,301.27,102.34Z"/><path class="cls-1" d="M583.81,294.58c-.95,4.33-.79,8.64-1.13,12.95s-.86,8.59-1.44,12.87l-1.07,6.38-.53,3.19-.28,1.59-.35,1.58-1.44,6.3c-.48,2.1-.93,4.2-1.58,6.26a213.68,213.68,0,0,1-19.44,47.52c-16.62,29.93-39.95,55.6-66.89,75.91a281.81,281.81,0,0,1-42.85,26.7,302.72,302.72,0,0,1-46.6,19,318.53,318.53,0,0,1-48.92,11.3,328.42,328.42,0,0,1-50,3.8,339.29,339.29,0,0,1-50-3.79,318.87,318.87,0,0,1-48.93-11.28,302.55,302.55,0,0,1-46.61-19,280.57,280.57,0,0,1-42.86-26.69c-27-20.31-50.3-46-66.92-75.94A214.93,214.93,0,0,1,26.5,345.71a208.9,208.9,0,0,1-7.27-51.13,206.29,206.29,0,0,1,7.07-51.17,214.54,214.54,0,0,1,19.28-47.68c16.52-30.06,39.82-55.89,66.77-76.37a280.57,280.57,0,0,1,42.9-26.92A302.84,302.84,0,0,1,202,73.29a319.54,319.54,0,0,1,49.09-11.42,332,332,0,0,1,100.43-.08,320.88,320.88,0,0,1,49.12,11.35A304.74,304.74,0,0,1,447.4,92.23a281.56,281.56,0,0,1,43,26.88c27,20.47,50.38,46.32,67,76.42a215.51,215.51,0,0,1,19.34,47.77A209.66,209.66,0,0,1,583.81,294.58Zm-16.11,0a199.88,199.88,0,0,0-21.9-92.95c-14.58-28.89-35.84-54.49-61.16-75.22A268.61,268.61,0,0,0,443.85,99a285.76,285.76,0,0,0-45.2-19.8,302.08,302.08,0,0,0-48-11.9,325,325,0,0,0-49.37-4,325.15,325.15,0,0,0-49.38,4,303.41,303.41,0,0,0-48,11.82,286.52,286.52,0,0,0-45.26,19.74,268.36,268.36,0,0,0-40.87,27.42C92.33,146.89,71,172.5,56.36,201.43a205.61,205.61,0,0,0-16.68,45.36,198,198,0,0,0-5.35,47.79A200.57,200.57,0,0,0,56,387.92c14.55,29.05,35.83,54.81,61.21,75.71a269.85,269.85,0,0,0,40.91,27.65A285.88,285.88,0,0,0,203.5,511.2a303.3,303.3,0,0,0,48.21,12,317.46,317.46,0,0,0,49.56,4,327.57,327.57,0,0,0,49.56-4,304.42,304.42,0,0,0,48.22-11.94,287.36,287.36,0,0,0,45.39-19.91,269.23,269.23,0,0,0,40.93-27.64c25.38-20.9,46.68-46.67,61.22-75.73a205.4,205.4,0,0,0,16.51-45.52c.54-1.94.89-3.93,1.26-5.91l1.13-5.93.28-1.49c.08-.49.13-1,.2-1.49l.39-3,.78-6c.39-4,.59-8,.9-12,.07-2,.05-4,.08-6a20.21,20.21,0,0,0-.07-3A13.51,13.51,0,0,1,567.7,294.58Z"/><path class="cls-4" d="M369.26,387.84l42.19,13.39a12.85,12.85,0,0,1,8.34,16.09h0a12.85,12.85,0,0,1-16.09,8.34l-42.19-13.39a12.85,12.85,0,0,1-8.34-16.09h0A12.85,12.85,0,0,1,369.26,387.84Z"/><path class="cls-5" d="M407.85,409.05l-27.76-8.81a3.21,3.21,0,0,1-2.08-4h0a3.21,3.21,0,0,1,4-2.09l27.76,8.81a3.22,3.22,0,0,1,2.08,4h0A3.21,3.21,0,0,1,407.85,409.05Z"/><path class="cls-6" d="M415.81,422.17l-42.19-13.39a12.86,12.86,0,0,1-8.34-16.09h0a12.67,12.67,0,0,1,3.08-5.1,12.86,12.86,0,0,0-15.19,8.59h0a12.85,12.85,0,0,0,8.34,16.09l42.19,13.39a12.84,12.84,0,0,0,13-3.25Z"/><path class="cls-7" d="M390.91,394.71l-7.75,24.43-21.65-6.87a12.86,12.86,0,0,1-8.34-16.09,14.07,14.07,0,0,1,.51-1.33c.07-.16.14-.32.22-.48l.28-.54c.19-.34.41-.69.63-1l.24-.33c.09-.13.19-.26.29-.38l.27-.33c.11-.13.22-.26.34-.38l.22-.23q.15-.17.33-.33a4.26,4.26,0,0,1,.38-.35c.1-.1.22-.19.33-.28l.43-.34a3.36,3.36,0,0,1,.43-.31l.1-.07c.13-.1.27-.18.41-.27a.19.19,0,0,1,.09-.05l.44-.27a11.2,11.2,0,0,1,1-.52l0,0,.52-.21c.19-.08.37-.14.55-.2a10.29,10.29,0,0,1,1.71-.46h0a11.17,11.17,0,0,1,1.16-.17l.6,0a8.67,8.67,0,0,1,1.14,0H366a7.6,7.6,0,0,1,1.07.1l.2,0,.51.08a13.9,13.9,0,0,1,1.51.38Z"/><path class="cls-8" d="M385.27,412.48l-2.11,6.66-21.65-6.87a12.86,12.86,0,0,1-8.34-16.09,14.07,14.07,0,0,1,.51-1.33c.07-.16.14-.32.22-.48l.28-.54c.19-.34.41-.69.63-1l.24-.33c.09-.13.19-.26.29-.38l.27-.33c.11-.13.22-.26.34-.38l.22-.23q.15-.17.33-.33a4.26,4.26,0,0,1,.38-.35c.1-.1.22-.19.33-.28l.43-.34a3.36,3.36,0,0,1,.43-.31l.1-.07c.13-.1.27-.18.41-.27a.19.19,0,0,1,.09-.05l.44-.27c.34-.19.69-.36,1-.52l0,0,.52-.21c.19-.08.37-.14.55-.2a11.69,11.69,0,0,1,1.71-.46h0c.39-.07.77-.13,1.16-.17l.6,0a8.66,8.66,0,0,1,1.14,0H366a9.45,9.45,0,0,1,1.07.1l.2,0,.51.08.61.14a12.6,12.6,0,0,0-3.08,5.09,12.86,12.86,0,0,0,8.34,16.09Z"/><path class="cls-9" d="M390.27,396.75l-1.94,6.11-8.24-2.62a3.21,3.21,0,0,1-2.08-4,3.25,3.25,0,0,1,1.58-1.88,3.21,3.21,0,0,1,2.44-.2Z"/><path class="cls-10" d="M227.65,433.33l51.57-13.63a15.5,15.5,0,0,1,18.88,11h0a15.49,15.49,0,0,1-11,18.87l-51.57,13.63a15.49,15.49,0,0,1-18.88-11h0A15.49,15.49,0,0,1,227.65,433.33Z"/><path class="cls-11" d="M280.61,430l-33.93,9A3.87,3.87,0,0,1,242,436.2h0a3.88,3.88,0,0,1,2.74-4.72l33.94-9a3.86,3.86,0,0,1,4.71,2.75h0A3.86,3.86,0,0,1,280.61,430Z"/><path class="cls-12" d="M297.18,438.19,245.6,451.82a15.49,15.49,0,0,1-18.87-11h0a15.29,15.29,0,0,1-.16-7.17,15.49,15.49,0,0,0-9.91,18.54h0a15.49,15.49,0,0,0,18.88,11l51.57-13.63a15.47,15.47,0,0,0,11.14-11.7C297.9,438,297.54,438.09,297.18,438.19Z"/><path class="cls-7" d="M254.11,426.34,262,456.2l-26.46,7a15.49,15.49,0,0,1-18.88-11,15.94,15.94,0,0,1-.34-1.67c0-.22-.06-.43-.08-.64s-.05-.48-.06-.72a13.88,13.88,0,0,1,0-1.44l0-.49c0-.19,0-.38.05-.58l.06-.51c0-.2.06-.4.1-.61s0-.24.07-.36.08-.37.13-.55.1-.41.16-.6a4.32,4.32,0,0,1,.16-.51c.06-.21.13-.41.21-.62s.15-.4.24-.6a1.47,1.47,0,0,1,.06-.14c.07-.17.15-.35.24-.52a.61.61,0,0,1,.05-.12L218,441a11.26,11.26,0,0,1,.71-1.21s0,0,0,0c.14-.19.26-.38.4-.56s.28-.38.43-.56A13.41,13.41,0,0,1,221,437l0,0a10.56,10.56,0,0,1,1.07-.92c.18-.15.37-.29.57-.43.38-.27.76-.52,1.16-.75l.1-.06a11.31,11.31,0,0,1,1.15-.59l.21-.1.58-.25a14.85,14.85,0,0,1,1.78-.59Z"/><path class="cls-8" d="M259.85,448.05,262,456.2l-26.46,7a15.49,15.49,0,0,1-18.88-11,15.94,15.94,0,0,1-.34-1.67c0-.22-.06-.43-.08-.64s-.05-.48-.06-.72a13.88,13.88,0,0,1,0-1.44l0-.49c0-.19,0-.38.05-.58l.06-.51c0-.2.06-.4.1-.61s0-.24.07-.36.08-.37.13-.55.1-.41.16-.6a4.32,4.32,0,0,1,.16-.51c.06-.21.13-.41.21-.62s.15-.4.24-.6a1.47,1.47,0,0,1,.06-.14c.07-.17.15-.35.24-.52a.61.61,0,0,1,.05-.12L218,441c.22-.42.46-.82.71-1.21,0,0,0,0,0,0,.14-.19.26-.38.4-.56s.28-.38.43-.56A14.26,14.26,0,0,1,221,437l0,0a13.31,13.31,0,0,1,1.07-.92c.18-.15.37-.29.57-.43a12.76,12.76,0,0,1,1.16-.75l.1-.06c.37-.21.75-.41,1.15-.59l.21-.1.58-.25.7-.25a15.33,15.33,0,0,0-.35,3.53,15.06,15.06,0,0,0,.51,3.63,15.49,15.49,0,0,0,18.87,11Z"/><path class="cls-9" d="M254.77,428.83l2,7.46L246.68,439a3.86,3.86,0,1,1-2-7.46Z"/><path class="cls-8" d="M348.18,450.18c-6.68-.64-16,1.08-25.57,5.16s-17.28,9.6-21.45,14.85L295,472.81l4.51,10.6c2.92,6.86,18.57,6.76,34.95-.21s27.31-18.19,24.39-25.05l-4.51-10.59Z"/><ellipse class="cls-7" cx="324.67" cy="460.18" rx="32.25" ry="13.49" transform="translate(-154.28 163.9) rotate(-23.06)"/><path class="cls-9" d="M354.39,447.68l-.05-.12a6,6,0,0,0-1.49-2.08L294.54,470.3a5.87,5.87,0,0,0,.46,2.51l.06.12Z"/><path class="cls-8" d="M354.6,448.34a5.1,5.1,0,0,0-.26-.78h0a1.17,1.17,0,0,0-1.54-.59l-57.16,24.33a1.18,1.18,0,0,0-.65,1.51h0a6.45,6.45,0,0,0,.38.74Z"/><polygon class="cls-13" points="164.55 401.63 155.5 406.08 157.18 409.63 166.33 405.37 164.55 401.63"/><polygon class="cls-13" points="167.49 399.73 158.75 404.76 160.59 408.11 169.43 403.25 167.49 399.73"/><path class="cls-14" d="M92,220.35l.22.23.89-.32-1,.05Zm.08.28ZM107.4,254.3a6.91,6.91,0,0,0-3.89-.47l-3.18.3-2.86,1.62c-2.28,1.29-3,2.53-3.06,2.78L94,260.47l-1.6,1.17c-4.82,3.54-6.39,7.06-5.85,8.73l1.66,4.79.24,1a2,2,0,0,0,.08.22v0l1.28-3.24a15.84,15.84,0,0,0,3.41.85l-.92,6.29,3.12,3-3.36,1.12,18.64,56.84.21.95a2.83,2.83,0,0,0,.11.58c.06.13.14.26.21.39l12.93,39.11-.4.38,1.71,5.43-2.63-4.54-1,.93c-4.82,4.63-7,9.51-5.9,13l.84,2.42.31-.24.25.29.06.08a11.12,11.12,0,0,0,2.77,2.17l.49.27a25.15,25.15,0,0,0,8.52,2.39,51.93,51.93,0,0,0,21.35-2.55c1.08-.34,2.13-.72,3.16-1.12l3.62,9.42c-1.2.46-2.42.9-3.67,1.3-2,.65-4,1.2-6,1.66l15.65,46.64-2.74,2.21c-2.75,2.2-3.65,4.24-3.44,4.89l1.12,3.23.71-1.81a10.08,10.08,0,0,0,1.73.49l-.71,3.69a9.54,9.54,0,0,0,1.32.47l.46-4a23.69,23.69,0,0,0,9.75-1.18l1.41,4.35h0a26.76,26.76,0,0,0,3-1.18l-1.15-3.05-.54-1.19.54,1.19-.54-1.19.54,1.19-.46-1.22,1.82,4.17a23,23,0,0,0,2.58-1.4L176.61,466l.24-.14,2.31,3.82h0l-2.23-3.86,2.23,3.86a18.63,18.63,0,0,0,2.14-1.61l-2.5-3.49.2-.15,2.59,3.39a13.49,13.49,0,0,0,1.63-1.79l-2.75-2.86.2-.2,2.75,2.77a5,5,0,0,0,.72-1.53l-.06-.65-2.37-1.78.16-.22,2.17,1.62-.72-2-1-.38.06-.15.4.08-.35-.17.57.27.19.08-.29-.83-.23,0v-.08l.2,0-.16-.84c-.25-.77-2.23-1.92-5.84-2.07l-3.43-.14-16.37-47.2,1-.5-3.43-8.46.07,0,.08,0q.94-.37,1.86-.78h0l3.69,8.2.7-.35.59-.29L158,399.3c.53-.25,1.06-.5,1.57-.76l4.09,7.9c.45-.25.9-.51,1.33-.77l-4.26-7.77.17-.09h0c.44-.24.87-.49,1.3-.74h0l4.47,7.56,1.29-.87-4.65-7.38c.45-.28.9-.57,1.33-.86l4.84,7.13c.41-.31.81-.63,1.2-.95l-5-6.94,1.16-.86,5.15,6.64c.38-.34.75-.69,1.11-1l-5.27-6.39c.35-.29.7-.58,1-.88l5.39,6.07c.34-.38.67-.76,1-1.14l-5.47-5.75,0,0,.88-.87,5.5,5.41c.3-.42.57-.83.82-1.25l-5.54-5v0c.24-.27.48-.54.71-.82v0l5.51,4.57a13,13,0,0,0,.57-1.35L172.94,388c.2-.27.39-.54.58-.82l5.2,3.58c.07-.31.12-.61.16-.91l-.06-.61-4.73-2.9c.16-.25.29-.51.43-.76l4.17,2.27-.12-1.23-.07-.18-3.5-1.74h0s0,0,0-.05.09-.22.14-.32,0,0,0-.05l.12-.27,2.75,1.14-.55-1.54-1.81-.66.11-.39,1.48.44-.38-1.06-.9-.17.06-.46.65.1-.34-.93,4-1.43-4.19.64-.22-1.21c0-.09-.05-.18-.08-.27-1.16-3.59-5.86-6.27-12.58-7.18l-3.08-.41-10.3-29.73-.59-.25-.39-4.11-1.57-4.37-.07-.57a2.33,2.33,0,0,0-.08-.4,3,3,0,0,0-.63-1l-.65-.74-19.45-56.13L123,274.44v-.08l-19.24,6.43,16-15.63,3,2.92-.54-1.64-2-1.76c.15-.17.3-.34.44-.52l1.06.88-.27-.81.27.82,2.61,2.17.18-1-3.43-2.63c.11-.14.21-.29.31-.43v0h0l3.16,2.18-.09-1-2.73-1.72.25-.44,2.22,1.27-.41-1.15-1.49-.75.09-.21,1.25.54-.25-.7-.83-.28.09-.32.58.17-.11-.31-.4-.07.05-.4.79.11,1.81-.64L123,260l-.22-.82,0-.26a.56.56,0,0,0,0-.12c-.7-2.16-5.21-4.18-12.19-3.68l-1.7.13Zm17.32,10.52v0Zm-.77,4.47.21-1.08-2-1.75.56,1.67Zm25.22,67.86a0,0,0,0,1,0,0Zm0,.06v0ZM165,405.67l-1.05-2-.8-1.32,1.84,3.34Zm-5-1.75,1.68,3.54Zm1.78,3.49-1.78-3.49,1.68,3.54Z"/><ellipse class="cls-7" cx="170.01" cy="463.25" rx="18.45" ry="10.21" transform="translate(-134.38 74.85) rotate(-17.93)"/><path class="cls-15" d="M174.58,477.31c-9,2.91-17.61,1.56-20.19-2.94h0l0-.13a6.61,6.61,0,0,1-.43-1c-.07-.22-.1-.44-.15-.67l-1.27-3.67h0c1.73,5.36,11,7.17,20.69,4,9.06-2.93,15.29-9.14,14.64-14.32l1.09,3c0,.09.08.17.11.26l0,.14.13,1.36.09,0C189.47,468.53,183.37,474.46,174.58,477.31Z"/><path class="cls-16" d="M180.17,461.52l-.08-.06-.05-.74a.13.13,0,0,1,0-.1.19.19,0,0,1,0-.14l-.38-1,.13,0-17.3-49.88c-2.29.89-4.66,1.75-7,2.53A100.23,100.23,0,0,1,143,415.28L159.7,465l-.13-.2.63,1.85c0,.13,0,.26.05.39a4.36,4.36,0,0,0,.27.53l0,.09c1.48,2.51,6.29,3.28,11.37,1.62C176.83,467.71,180.29,464.37,180.17,461.52Z"/><path class="cls-15" d="M155,415.67c-17.78,5.75-34.81,3.08-39.92-5.81l-.07,0-.09-.27a11.82,11.82,0,0,1-.83-1.93,11.66,11.66,0,0,1-.3-1.33l-2.53-7.26h0c3.44,10.6,21.75,14.18,40.92,8,17.91-5.79,30.21-18.08,28.94-28.32l2.14,6c.07.18.16.34.22.52a2.61,2.61,0,0,1,.06.27l.26,2.69.18.08C184.43,398.32,172.37,410,155,415.67Z"/><ellipse class="cls-7" cx="145.95" cy="387.87" rx="36.47" ry="20.19" transform="translate(-112.34 63.78) rotate(-17.93)"/><polygon class="cls-8" points="85.75 281.2 121.48 390.14 167.18 375.35 129.59 266.89 85.75 281.2"/><path class="cls-17" d="M152,329.56a8,8,0,0,0-1.62-2.75l-20.76-59.92L85.75,281.2,97,315.55,106,342.82a7.19,7.19,0,0,0,.33,1.53,6.68,6.68,0,0,0,.79,1.69c3.55,5.66,14.61,7.3,26.15,3.56C145.83,345.52,154.23,336.55,152,329.56Z"/><path class="cls-4" d="M152,329.56a8,8,0,0,0-1.62-2.75l-20.76-59.92L85.75,281.2,97,315.55,106,342.82a7.19,7.19,0,0,0,.33,1.53,6.68,6.68,0,0,0,.79,1.69c3.55,5.66,14.61,7.3,26.15,3.56C145.83,345.52,154.23,336.55,152,329.56Z"/><path class="cls-6" d="M151.88,330c-2.26-7-14.23-9.37-26.73-5.32s-20.81,13-18.55,20S120.83,354,133.34,350,154.14,337,151.88,330Z"/><path class="cls-7" d="M127.52,257.24c-2.26-7-14.32-9.34-26.94-5.25s-21,13.05-18.76,20,14.33,9.34,27,5.25S129.78,264.22,127.52,257.24Z"/><path class="cls-16" d="M110.63,282.94c-11.71,3.79-22.93,2-26.29-3.82h0l-.06-.17a8,8,0,0,1-.55-1.27,6.56,6.56,0,0,1-.19-.88L81.82,272h0c2.26,7,14.33,9.34,27,5.25,11.79-3.82,19.89-11.9,19.06-18.65l1.41,3.93c0,.11.1.22.14.34a1.36,1.36,0,0,1,0,.17l.17,1.78.12,0C130,271.52,122.07,279.24,110.63,282.94Z"/><path class="cls-16" d="M135.07,355.26c-11.71,3.79-22.92,2-26.29-3.82l0,0-.06-.18a7.17,7.17,0,0,1-.55-1.27c-.09-.29-.14-.58-.2-.87l-1.66-4.79h0c2.26,7,14.32,9.34,26.94,5.25,11.8-3.81,19.9-11.9,19.06-18.65l1.41,3.93a3.49,3.49,0,0,1,.15.34c0,.06,0,.12,0,.17l.17,1.78.12.05C154.46,343.84,146.52,351.56,135.07,355.26Z"/><path class="cls-7" d="M112,252.29c-1.11-3.44-7-4.59-13.24-2.59s-10.33,6.42-9.22,9.85,7,4.59,13.24,2.58S113.07,255.72,112,252.29Z"/><path class="cls-15" d="M103.66,264.92c-5.76,1.86-11.27,1-12.92-1.88h0l0-.08a3.52,3.52,0,0,1-.27-.63,3,3,0,0,1-.1-.43l-.82-2.35h0c1.11,3.44,7,4.59,13.24,2.58,5.8-1.87,9.78-5.85,9.37-9.16l.69,1.93a1.22,1.22,0,0,1,.07.17.19.19,0,0,1,0,.08l.09.87.06,0C113.19,259.3,109.28,263.1,103.66,264.92Z"/><path class="cls-8" d="M166,372.47c-2.26-7-14.33-9.33-26.95-5.25s-21,13.06-18.75,20,14.32,9.34,26.94,5.26S168.3,379.46,166,372.47Z"/><path class="cls-16" d="M145.23,375.48l0,0,0-.3s0,0,0,0a.09.09,0,0,1,0-.05l-.15-.42h0L138,354.23c-.94.36-1.91.71-2.89,1a40.78,40.78,0,0,1-5.05,1.3l6.83,20.34-.06-.08.26.75c0,.06,0,.11,0,.17s.07.15.11.21v0c.61,1,2.57,1.34,4.65.66S145.28,376.65,145.23,375.48Z"/><path class="cls-16" d="M149.14,398.18c-11.71,3.79-22.92,2-26.29-3.83l0,0-.06-.17a7.26,7.26,0,0,1-.55-1.28,6.45,6.45,0,0,1-.2-.87l-1.66-4.79h0c2.26,7,14.32,9.34,26.94,5.26,11.8-3.82,19.9-11.91,19.06-18.65l1.41,3.92c0,.12.11.22.15.34s0,.12,0,.18l.17,1.77.12.05C168.53,386.75,160.59,394.47,149.14,398.18Z"/><path class="cls-8" d="M104.61,253.65h0l0-.31a0,0,0,0,1,0,0l0-.07-.15-.41,0,0L93.61,221.64l-7.75,2.53,10.38,30.9a.83.83,0,0,1-.09-.16l.29.84,0,.16a1.47,1.47,0,0,0,.1.22v0h0c.59,1,2.58,1.35,4.64.68S104.66,254.82,104.61,253.65Z"/><path class="cls-7" d="M93.24,219.93c-.39-1.23-2.53-1.64-4.76-.92s-3.71,2.3-3.31,3.54,2.53,1.65,4.76.93S93.64,221.17,93.24,219.93Z"/><path class="cls-15" d="M90.26,224.48c-2.07.67-4.05.35-4.65-.68h0v0a.88.88,0,0,1-.1-.22.75.75,0,0,1,0-.16l-.29-.84h0c.4,1.23,2.53,1.65,4.76.93,2.08-.68,3.52-2.11,3.37-3.3l.25.69a.14.14,0,0,1,0,.06.06.06,0,0,1,0,0l0,.31h0C93.68,222.46,92.28,223.82,90.26,224.48Z"/><path class="cls-8" d="M87,221.17l-34-107.78,1-5.52L91,220.1a1.07,1.07,0,0,1-.46,1.23,4.21,4.21,0,0,1-2.47.75A1.29,1.29,0,0,1,87,221.17Z"/><path class="cls-15" d="M54.1,110.67c.18-1.57.12-2.78-.28-2.83s-.9,1.19-1.08,2.76-.13,2.67.27,2.72S53.92,112.24,54.1,110.67Z"/><path class="cls-15" d="M53.66,110.62c.11-1,.1-1.75-.09-1.77s-.46.76-.57,1.74-.11,1.68.09,1.7S53.55,111.61,53.66,110.62Z"/><path class="cls-9" d="M93.15,287.93l17.38,55.46s3.54,4,7.71,2.23l-15.58-47.43A16.85,16.85,0,0,0,93.34,288Z"/><path class="cls-18" d="M518.44,312V435.42c0,5.61-18.86,10.15-42.11,10.15s-42.12-4.54-42.12-10.15V312h.23c2.15-5.13,20.09-9.13,41.89-9.13s39.74,4,41.9,9.13Z"/><path class="cls-18" d="M512.17,285v24.54c0,4.78-16,8.65-35.84,8.65s-35.84-3.87-35.84-8.65V285Z"/><path class="cls-19" d="M510.8,315.1c-1.72-4.23-16.5-7.53-34.47-7.53-19.13,0-34.64,3.74-34.64,8.36V421.52H511V315.1Z"/><path class="cls-20" d="M511,429h0a1.64,1.64,0,0,1,0,.22c0,4.61-15.51,8.36-34.64,8.36-4.05,0-7.94-.16-11.56-.49a82.47,82.47,0,0,1-14.64-2.4c-5.26-1.48-8.45-3.38-8.45-5.47,0-.08,0-.14,0-.22h0V323.4c0-2.09,3.19-4,8.45-5.46a81.4,81.4,0,0,1,14.64-2.42c3.62-.32,7.51-.48,11.56-.48,18,0,32.75,3.3,34.47,7.53H511Z"/><path class="cls-9" d="M479.83,315.08c-1.15,0-2.32,0-3.5,0l-1.84,0V437.54l1.84,0c1.18,0,2.35,0,3.5,0Z"/><path class="cls-21" d="M459.91,424.56c-1.32-.89-2-1.84-2-2.84a1.23,1.23,0,0,1,0-.2h0V316.32c-9.72,1.48-16.18,4.1-16.18,7.08V429h0a1.49,1.49,0,0,0,0,.21c0,3.19,7.37,5.95,18.22,7.37Z"/><path class="cls-21" d="M511,313.23H489.19V424h0c0,.06,0,.13,0,.2a1.66,1.66,0,0,1,0,.32V437c12.78-1.23,21.81-4.25,21.81-7.77a1.49,1.49,0,0,0,0-.21h0Z"/><path class="cls-9" d="M464.77,309.5V437.07a82.47,82.47,0,0,1-14.64-2.4V309.5a5.62,5.62,0,0,1,.08-.92A79.79,79.79,0,0,1,464,306.25,7,7,0,0,1,464.77,309.5Z"/><path class="cls-20" d="M511,314.07c0,4.61-15.51,8.36-34.64,8.36-4.05,0-7.94-.16-11.56-.49a81.56,81.56,0,0,1-14.64-2.4c-5.26-1.48-8.45-3.38-8.45-5.47s3.21-4,8.53-5.49A79.79,79.79,0,0,1,464,306.25c3.84-.35,8-.55,12.36-.55C495.46,305.7,511,309.45,511,314.07Z"/><path class="cls-15" d="M512.17,289.73v10.69c-7.42,2.89-20.7,4.82-35.84,4.82s-28.42-1.93-35.84-4.82V289.73c6.42-2.5,17.24-4.28,29.84-4.71q2.94-.11,6-.1c2,0,4,0,6,.1C494.93,285.45,505.74,287.23,512.17,289.73Z"/><path class="cls-20" d="M434.22,261.79v28.83c0,5.61,18.85,10.17,42.11,10.17s42.11-4.56,42.11-10.17V261.79Z"/><path class="cls-18" d="M475.29,261.79h-9.54v38.67c3.05.19,6.26.29,9.54.31Z"/><path class="cls-21" d="M447.08,261.79H434.22v28.83c0,2.87,4.93,5.46,12.86,7.31Z"/><path class="cls-21" d="M494,261.79v38.06c14.45-1.61,24.48-5.14,24.48-9.23V261.79Z"/><path class="cls-22" d="M509.73,261.79v35c5.46-1.72,8.71-3.86,8.71-6.19V261.79Z"/><ellipse class="cls-15" cx="476.33" cy="262.41" rx="42.11" ry="10.16"/><ellipse class="cls-18" cx="476.33" cy="260.92" rx="16.33" ry="4.05"/><path class="cls-18" d="M476.33,271.17c-22.28,0-40.51-4.17-42-9.46a2.38,2.38,0,0,0-.11.7c0,5.61,18.85,10.16,42.11,10.16s42.11-4.55,42.11-10.16a2.76,2.76,0,0,0-.11-.7C516.84,267,498.61,271.17,476.33,271.17Z"/><path class="cls-23" d="M492.66,261.37c0,2.18-7.31,3.94-16.33,3.94S460,263.55,460,261.37s7.31-3.94,16.33-3.94S492.66,259.2,492.66,261.37Z"/><path class="cls-24" d="M460.7,262.51c2-1.62,8.25-2.8,15.63-2.8s13.6,1.18,15.63,2.8a1.53,1.53,0,0,0,.7-1.14c0-2.17-7.31-3.94-16.33-3.94S460,259.2,460,261.37A1.53,1.53,0,0,0,460.7,262.51Z"/><path class="cls-9" d="M442.11,399a24.86,24.86,0,0,1-5.06-2.25A24.86,24.86,0,0,0,442.11,399Z"/><path class="cls-9" d="M502.16,338.06l.31-.06Z"/><path class="cls-9" d="M504.29,337.64l.1,0Z"/><path class="cls-9" d="M500.14,338.42h0Z"/><path class="cls-9" d="M443.22,336.31h0Z"/><path class="cls-9" d="M436.9,396.67c-.15-.09-.29-.19-.43-.29C436.61,396.48,436.75,396.58,436.9,396.67Z"/><path class="cls-9" d="M442.11,336h0Z"/><path class="cls-9" d="M506.29,337.18h0Z"/><path class="cls-9" d="M500.14,401.48l-2.24.34Z"/><path class="cls-9" d="M511.35,335.68l.07,0Z"/><path class="cls-9" d="M509.66,336.25l.2-.07Z"/><path class="cls-9" d="M508,336.74l.31-.09Z"/><path class="cls-9" d="M443.21,399.37l-1.07-.34Z"/><path class="cls-9" d="M434.21,330a2.07,2.07,0,0,0,.06.5A2.07,2.07,0,0,1,434.21,330Z"/><path class="cls-9" d="M434.81,394.8c-.05-.08-.11-.15-.15-.23C434.7,394.65,434.76,394.72,434.81,394.8Z"/><path class="cls-9" d="M434.31,393.77c0-.06,0-.11,0-.17S434.3,393.71,434.31,393.77Z"/><path class="cls-9" d="M435.2,395.28,435,395Z"/><path class="cls-9" d="M436.24,333.16l.23.15Z"/><path class="cls-9" d="M435.68,395.76l-.27-.25Z"/><path class="cls-9" d="M436.24,396.22l-.33-.27Z"/><path class="cls-9" d="M434.51,394.3a1.89,1.89,0,0,1-.09-.21A1.89,1.89,0,0,0,434.51,394.3Z"/><path class="cls-9" d="M502.15,401.12c-.63.12-1.28.24-1.95.35C500.87,401.36,501.52,401.24,502.15,401.12Z"/><path class="cls-9" d="M435.68,332.69l.23.2Z"/><path class="cls-9" d="M434.81,331.73l.18.25Z"/><path class="cls-9" d="M434.31,330.7a1.73,1.73,0,0,0,.11.32A1.73,1.73,0,0,1,434.31,330.7Z"/><path class="cls-9" d="M434.51,331.23c.05.09.09.18.15.28C434.6,331.41,434.56,331.32,434.51,331.23Z"/><path class="cls-9" d="M436.9,333.61l.15.09Z"/><path class="cls-9" d="M476.33,392.26c-12.78,0-24.22-1.37-31.95-3.54v11l-1.14-.34c7.71,2.36,19.66,3.88,33.09,3.88a153.51,153.51,0,0,0,21.57-1.44v-11A153.61,153.61,0,0,1,476.33,392.26Z"/><path class="cls-9" d="M518.3,330.84c0-.06,0-.12.05-.18S518.31,330.78,518.3,330.84Z"/><path class="cls-9" d="M513.89,397.69c-.3.15-.62.29-.95.43C513.27,398,513.59,397.84,513.89,397.69Z"/><path class="cls-9" d="M518,394.54a4.73,4.73,0,0,1-.39.56A4.73,4.73,0,0,0,518,394.54Z"/><path class="cls-9" d="M512.64,398.24l-1.22.48Z"/><path class="cls-9" d="M518,331.47a1.62,1.62,0,0,0,.1-.18A1.62,1.62,0,0,1,518,331.47Z"/><path class="cls-9" d="M512.64,335.18l.3-.12Z"/><path class="cls-9" d="M515.17,397c-.32.19-.68.37-1,.55C514.49,397.4,514.85,397.22,515.17,397Z"/><path class="cls-9" d="M476.33,376.82a153.51,153.51,0,0,0,21.57-1.44V338.77h0a153.61,153.61,0,0,1-21.57,1.43c-12.78,0-24.22-1.37-31.95-3.54v36.61C452.11,375.44,463.55,376.82,476.33,376.82Z"/><path class="cls-9" d="M435.41,332.44l-.21-.22Z"/><path class="cls-9" d="M516.83,395.88c-.17.15-.36.29-.56.44C516.47,396.17,516.66,396,516.83,395.88Z"/><path class="cls-9" d="M517.59,395.14a6.4,6.4,0,0,1-.58.59A6.4,6.4,0,0,0,517.59,395.14Z"/><path class="cls-9" d="M516.05,396.48q-.37.25-.81.51Q515.67,396.74,516.05,396.48Z"/><path class="cls-9" d="M517,332.66l-.18.16Z"/><path class="cls-9" d="M518.3,393.91a4.32,4.32,0,0,1-.19.45A4.32,4.32,0,0,0,518.3,393.91Z"/><path class="cls-9" d="M515.17,334l.07-.05Z"/><path class="cls-9" d="M506.29,400.24c-.61.15-1.25.29-1.9.43C505,400.53,505.68,400.39,506.29,400.24Z"/><path class="cls-9" d="M504.27,400.7l-1.8.36Z"/><path class="cls-9" d="M513.89,334.63l.24-.11Z"/><path class="cls-9" d="M508,399.8l-1.62.43Z"/><path class="cls-9" d="M518.44,393.1a2.58,2.58,0,0,1-.09.62A2.58,2.58,0,0,0,518.44,393.1Z"/><path class="cls-9" d="M517.59,332.07l0,0Z"/><path class="cls-9" d="M509.65,399.31c-.44.14-.9.27-1.37.4C508.75,399.58,509.21,399.45,509.65,399.31Z"/><path class="cls-9" d="M511.35,398.74c-.48.17-1,.34-1.49.5C510.38,399.08,510.87,398.91,511.35,398.74Z"/><path class="cls-9" d="M516.05,333.41l.22-.16Z"/><path class="cls-7" d="M434.27,393.6a2.14,2.14,0,0,1-.06-.5A2.14,2.14,0,0,0,434.27,393.6Z"/><path class="cls-7" d="M435.91,396l-.23-.19Z"/><path class="cls-7" d="M434.27,330.53c0,.06,0,.12,0,.17S434.28,330.59,434.27,330.53Z"/><path class="cls-7" d="M435,395l-.18-.24Z"/><path class="cls-7" d="M434.42,394.09a2,2,0,0,1-.11-.32A2,2,0,0,0,434.42,394.09Z"/><path class="cls-7" d="M434.66,394.57c-.06-.09-.1-.18-.15-.27C434.56,394.39,434.6,394.48,434.66,394.57Z"/><path class="cls-7" d="M435.41,395.51l-.21-.23Z"/><path class="cls-7" d="M444.38,336.66l-1.15-.34,1.15.34Z"/><path class="cls-7" d="M442.14,336l1.08.34Z"/><path class="cls-7" d="M437.05,333.7a24.3,24.3,0,0,0,5.06,2.26A24.3,24.3,0,0,1,437.05,333.7Z"/><path class="cls-7" d="M437.05,396.77l-.15-.1Z"/><path class="cls-7" d="M442.14,399h0Z"/><path class="cls-7" d="M443.24,399.38h0Z"/><path class="cls-7" d="M435.91,332.89l.33.27Z"/><path class="cls-7" d="M435,332l.21.24Z"/><path class="cls-7" d="M434.66,331.51c0,.07.1.15.15.22S434.7,331.58,434.66,331.51Z"/><path class="cls-7" d="M434.42,331a1.89,1.89,0,0,0,.09.21A1.89,1.89,0,0,1,434.42,331Z"/><path class="cls-7" d="M436.47,333.31l.43.3Z"/><path class="cls-7" d="M436.47,396.38l-.23-.16Z"/><path class="cls-7" d="M435.68,332.69c-.1-.08-.18-.17-.27-.25C435.5,332.52,435.58,332.61,435.68,332.69Z"/><path class="cls-7" d="M444.38,373.27V336.66l-1.15-.34h0l-1.08-.34h0a24.3,24.3,0,0,1-5.06-2.26l-.15-.09-.43-.3-.23-.15-.33-.27-.23-.2c-.1-.08-.18-.17-.27-.25l-.21-.22L435,332l-.18-.25c-.05-.07-.11-.15-.15-.22s-.1-.19-.15-.28a1.89,1.89,0,0,1-.09-.21,1.73,1.73,0,0,1-.11-.32c0-.05,0-.11,0-.17a2.07,2.07,0,0,1-.06-.5v36.62C434.21,369.18,438.05,371.49,444.38,373.27Z"/><path class="cls-7" d="M444.38,388.72c-6.33-1.78-10.17-4.08-10.17-6.61v11a2.14,2.14,0,0,0,.06.5c0,.06,0,.11,0,.17a2,2,0,0,0,.11.32,1.89,1.89,0,0,0,.09.21c.05.09.09.18.15.27s.1.15.15.23l.18.24.21.24.21.23.27.25.23.19.33.27.23.16c.14.1.28.2.43.29l.15.1a24.86,24.86,0,0,0,5.06,2.25h0l1.07.34h0l1.14.34Z"/><path class="cls-7" d="M514.13,397.58l-.24.11Z"/><path class="cls-7" d="M518.11,331.29a4.32,4.32,0,0,0,.19-.45A4.32,4.32,0,0,1,518.11,331.29Z"/><path class="cls-7" d="M516.27,333.25c.2-.14.39-.29.56-.43C516.66,333,516.47,333.11,516.27,333.25Z"/><path class="cls-7" d="M512.94,398.12l-.3.12Z"/><path class="cls-7" d="M497.9,338.77c.77-.11,1.51-.23,2.24-.35C499.41,338.54,498.67,338.66,497.9,338.77Z"/><path class="cls-7" d="M509.86,399.24l-.21.07Z"/><path class="cls-7" d="M517.62,332a4,4,0,0,0,.39-.56A4,4,0,0,1,517.62,332Z"/><path class="cls-7" d="M518.35,330.66a2.74,2.74,0,0,0,.09-.63A2.74,2.74,0,0,1,518.35,330.66Z"/><path class="cls-7" d="M518.11,394.36a1.62,1.62,0,0,1-.1.18A1.62,1.62,0,0,0,518.11,394.36Z"/><path class="cls-7" d="M517.62,395.1l0,0Z"/><path class="cls-7" d="M517.59,332.07a5.35,5.35,0,0,1-.58.59A5.35,5.35,0,0,0,517.59,332.07Z"/><path class="cls-7" d="M518.35,393.72c0,.06,0,.13-.05.19S518.34,393.78,518.35,393.72Z"/><path class="cls-7" d="M515.24,397l-.07,0Z"/><path class="cls-7" d="M517,395.73l-.18.15Z"/><path class="cls-7" d="M516.27,396.32l-.22.16Z"/><path class="cls-7" d="M511.42,398.72l-.07,0Z"/><path class="cls-7" d="M500.2,401.47h0Z"/><path class="cls-7" d="M506.34,337.17c.56-.14,1.1-.28,1.62-.43C507.44,336.89,506.9,337,506.34,337.17Z"/><path class="cls-7" d="M509.86,336.18c.51-.16,1-.33,1.49-.5C510.87,335.85,510.38,336,509.86,336.18Z"/><path class="cls-7" d="M508.27,336.65l1.39-.4Z"/><path class="cls-7" d="M500.21,338.41l2-.35Z"/><path class="cls-7" d="M502.47,338l1.82-.36Z"/><path class="cls-7" d="M504.39,337.61l1.9-.43Z"/><path class="cls-7" d="M511.42,335.65c.43-.15.83-.31,1.22-.47C512.25,335.34,511.85,335.5,511.42,335.65Z"/><path class="cls-7" d="M512.94,335.06l.95-.43Z"/><path class="cls-7" d="M504.39,400.67l-.12,0Z"/><path class="cls-7" d="M514.13,334.52c.36-.18.72-.37,1-.55C514.85,334.15,514.49,334.34,514.13,334.52Z"/><path class="cls-7" d="M506.34,400.23h0Z"/><path class="cls-7" d="M515.24,333.92c.29-.16.56-.34.81-.51C515.8,333.58,515.53,333.76,515.24,333.92Z"/><path class="cls-7" d="M502.47,401.06l-.32.06Z"/><path class="cls-7" d="M508.28,399.71l-.32.09Z"/><path class="cls-7" d="M497.9,390.83v11h0l2.24-.34h.06c.67-.11,1.32-.23,1.95-.35l.32-.06,1.8-.36.12,0c.65-.14,1.29-.28,1.9-.43h0l1.62-.43.32-.09c.47-.13.93-.26,1.37-.4l.21-.07c.52-.16,1-.33,1.49-.5l.07,0,1.22-.48.3-.12c.33-.14.65-.28.95-.43l.24-.11c.36-.18.72-.36,1-.55l.07,0q.43-.25.81-.51l.22-.16c.2-.15.39-.29.56-.44l.18-.15a6.4,6.4,0,0,0,.58-.59l0,0a4.73,4.73,0,0,0,.39-.56,1.62,1.62,0,0,0,.1-.18,4.32,4.32,0,0,0,.19-.45c0-.06,0-.13.05-.19a2.58,2.58,0,0,0,.09-.62v-11C518.44,385.82,510.2,389.06,497.9,390.83Z"/><path class="cls-7" d="M518.35,330.66c0,.06,0,.12-.05.18a4.32,4.32,0,0,1-.19.45,1.62,1.62,0,0,1-.1.18,4,4,0,0,1-.39.56l0,0a5.35,5.35,0,0,1-.58.59l-.18.16c-.17.14-.36.29-.56.43l-.22.16c-.25.17-.52.35-.81.51l-.07.05c-.32.18-.68.37-1,.55l-.24.11-.95.43-.3.12c-.39.16-.79.32-1.22.47l-.07,0c-.48.17-1,.34-1.49.5l-.2.07-1.39.4-.31.09c-.52.15-1.06.29-1.62.43h0l-1.9.43-.1,0-1.82.36-.31.06-2,.35h-.07c-.73.12-1.47.24-2.24.35h0v36.61c12.3-1.78,20.54-5,20.54-8.73V330A2.74,2.74,0,0,1,518.35,330.66Z"/><path class="cls-25" d="M444.38,373.27v15.45c7.73,2.17,19.17,3.54,31.95,3.54a153.61,153.61,0,0,0,21.57-1.43V375.38a153.51,153.51,0,0,1-21.57,1.44C463.55,376.82,452.11,375.44,444.38,373.27Z"/><path class="cls-4" d="M444.38,388.72V373.27c-6.33-1.78-10.17-4.09-10.17-6.62v15.46C434.21,384.64,438.05,386.94,444.38,388.72Z"/><path class="cls-4" d="M497.9,375.38v15.45c12.3-1.77,20.54-5,20.54-8.72V366.65C518.44,370.36,510.2,373.6,497.9,375.38Z"/><path class="cls-25" d="M297.64,34.35S194.53,71.05,143.86,150.56c0,0,10.48,197.47,153.78,270,143.3-72.52,153.78-270,153.78-270C400.74,71.05,297.64,34.35,297.64,34.35Z"/><path class="cls-26" d="M297.06,61.43S208.53,93.29,165.2,161.8c0,0,9.6,169.74,133,231.66,123-62.77,131.41-232.57,131.41-232.57C385.81,92.68,297.06,61.43,297.06,61.43Zm1.12,321.35C182.7,324.84,173.72,166,173.72,166,214.27,101.92,297.1,72.12,297.1,72.12s83,29.23,124,93C421.13,165.17,413.24,324.05,298.18,382.78Z"/><path class="cls-4" d="M297.1,72.12S214.27,101.92,173.72,166c0,0,9,158.81,124.46,216.75,115.06-58.73,123-217.61,123-217.61C380.14,101.35,297.1,72.12,297.1,72.12Z"/><polygon class="cls-9" points="354.43 182.45 318.17 182.45 318.17 146.19 277.1 146.19 277.1 182.45 240.84 182.45 240.84 223.52 277.1 223.52 277.1 259.78 318.17 259.78 318.17 223.52 354.43 223.52 354.43 182.45"/><path class="cls-26" d="M297.67,34.36h0S194.53,71.05,143.86,150.56c0,0,10.48,197.47,153.78,270l0,0Z"/><path class="cls-27" d="M297.67,382.52c-115-58.14-124-216.49-124-216.49C214.27,101.92,297.1,72.12,297.1,72.12l.57.2V61.65l-.61-.22S208.53,93.29,165.2,161.8c0,0,9.57,169.24,132.47,231.39Z"/><path class="cls-6" d="M297.67,72.32l-.57-.2S214.27,101.92,173.72,166c0,0,9,158.35,124,216.49Z"/><polygon class="cls-7" points="297.67 259.78 297.67 146.19 277.1 146.19 277.1 182.45 240.84 182.45 240.84 223.52 277.1 223.52 277.1 259.78 297.67 259.78"/><path class="cls-1" d="M583.76,56.84c-.68-2.7-2.37-7.11-4.4-6.6-1,.26-1.39,1.61-1.39,3.23-.3.5-2.16,3.05-9.71,4.48l-10.14,1.48a37.58,37.58,0,0,0-8.87-14l4.83-6a10,10,0,0,1,5.1-3.62c1.48.8,2.5.9,3,.32s.37-1.46-.39-2.71A16,16,0,0,0,559,30.15a16.34,16.34,0,0,0-3.57-2.56c-1.32-.64-2.24-.7-2.73-.15s-.35,1.57.55,2.95c0,.45,0,3.26-5,8L544.7,41.6a37.91,37.91,0,0,0-15.17-6.52l-.59-2.45a9.45,9.45,0,0,1,1-6.05l.08,0c1.43-.53,2.13-1.2,2.07-2-.12-1.88-4.26-2.11-6.69-1.95s-6.5.94-6.37,2.82a.93.93,0,0,0,.05.29c.21.65,1,1.12,2.27,1.41l.47.08c.47.5,1.8,2.34,2,7.24a37.69,37.69,0,0,0-12.69,1.76c-.84.27-1.65.57-2.45.89l-3.51-8.39a10.65,10.65,0,0,1-.81-6.5c1.51-1,2.1-1.91,1.84-2.77s-1.23-1.16-2.85-1.08a17,17,0,0,0-4.6,1c-2.44.85-6.4,2.78-5.8,4.65v0c.29.83,1.34,1.18,3.14,1,.45.22,3,1.7,4.92,8.63l1.54,6.48a37.78,37.78,0,0,0-9.05,8l-5.92-1.86a9.46,9.46,0,0,1-4.68-4c.26-1.32.19-2.47-.63-2.89s-1.61,0-2.66,1.12a16.83,16.83,0,0,0-2.45,3.63c-.88,1.74-2,4.6-1.5,6.1a1.38,1.38,0,0,0,.65.82c.72.36,1.61,0,2.66-1.12l.3-.36c.68-.16,3.13-.41,8,2.37l2.6,1.44a38,38,0,0,0-4.46,12.44l-10.12-.32a12.6,12.6,0,0,1-7.62-2.41c-.3-1.85-.93-3.22-2-3.32-2-.19-3.28,4-3.65,8a17.92,17.92,0,0,0,.4,6.58c.35,1.12.91,1.86,1.7,1.93s1.77-.75,2.46-2.49c0-.1.08-.23.12-.35.42-.36,3.29-2.49,12-1.15l6.19,1.22a37.6,37.6,0,0,0,7,20.6l-2.11,1.77a9.74,9.74,0,0,1-5.74,1.82c-1.18-1.22-2.15-1.62-2.89-1.21s-.87,1.35-.53,2.83c.06.25.14.51.22.78a18,18,0,0,0,1.46,3.27,16.17,16.17,0,0,0,2.61,3.52c1.09,1.06,2,1.39,2.7,1s.88-1.45.46-3.08c.13-.46,1-2.8,6.34-5.56l1.25-.68a37.86,37.86,0,0,0,15.47,9.51l-2,13.14a11.91,11.91,0,0,1-3.09,6.83h-.39c-1.78.13-2.78.65-3,1.54a1.31,1.31,0,0,0,0,.68c.51,1.58,3.82,3,7.05,3.68a19.74,19.74,0,0,0,5.29.48c1.78-.13,2.78-.64,3-1.53s-.51-1.77-2.08-2.62a3,3,0,0,0-.31-.15c-.3-.45-1.94-3.39.28-11.35l2.95-9.09a37.52,37.52,0,0,0,13.32-1.06l1.38,5a11.79,11.79,0,0,1,0,7.43l-.35.16c-1.56.84-2.25,1.71-2.06,2.6a.61.61,0,0,0,0,.13c.26.8,1.23,1.27,2.91,1.4a19.26,19.26,0,0,0,5.23-.46c3.67-.78,7.43-2.45,7-4.3-.19-.88-1.17-1.4-2.94-1.53h-.34c-.45-.28-3.12-2.27-4.34-10.36l-.25-2.29a37.25,37.25,0,0,0,11-7.78l2.49,1.48a12.72,12.72,0,0,1,5.51,5.79c-.74,2-.69,3.32.15,3.89,1.64,1.12,4.8-1.92,7.05-5.21a20.92,20.92,0,0,0,2.58-5c.57-1.78.47-2.95-.31-3.49s-2-.14-3.63,1.25c-.5.11-3.62.52-9.69-3.78a37.94,37.94,0,0,0,5.1-10.66,5.78,5.78,0,0,1,.72.1l9,.43a9.36,9.36,0,0,1,5.54,2.64,5.68,5.68,0,0,0,.23,1.39,1.61,1.61,0,0,0,1.11,1.23h0c1.84.4,3.21-3.51,3.73-5.89s.9-6.5-.93-6.9c-1-.22-1.84.82-2.5,2.19-.62.33-2.92,1.18-8.3-.28l-6.25-1.58a6.07,6.07,0,0,1-1-.38A37.68,37.68,0,0,0,560,67l13.2-4.21a11.25,11.25,0,0,1,7.08-.24c0,.1.1.22.15.31.87,1.47,1.74,2.11,2.59,1.9s1.32-1.19,1.38-2.9A18.54,18.54,0,0,0,583.76,56.84Z"/><path class="cls-1" d="M575.94,158.45c-.18-.71-.63-1.89-1.17-1.75-.28.07-.37.43-.37.86-.08.13-.58.81-2.59,1.19l-2.7.39a10,10,0,0,0-2.36-3.71l1.29-1.59a2.58,2.58,0,0,1,1.36-1c.39.21.66.23.8.08s.1-.39-.1-.72a4.25,4.25,0,0,0-.76-.89,4,4,0,0,0-1-.68c-.35-.17-.6-.19-.73,0s-.09.41.15.78c0,.12,0,.87-1.33,2.14l-.94.85a10.12,10.12,0,0,0-4-1.74l-.15-.65a2.48,2.48,0,0,1,.26-1.61h0c.38-.14.57-.32.55-.53,0-.5-1.13-.56-1.78-.52s-1.73.25-1.69.75a.19.19,0,0,0,0,.08c.06.17.26.3.6.38l.13,0a3,3,0,0,1,.54,1.92,10.12,10.12,0,0,0-3.38.47c-.23.07-.44.15-.66.24L555,151a2.72,2.72,0,0,1-.21-1.73c.4-.27.55-.51.48-.74s-.32-.31-.75-.29a4.85,4.85,0,0,0-1.23.26c-.65.23-1.7.74-1.54,1.24h0c.08.22.36.32.83.28.12.05.8.45,1.32,2.29l.4,1.73a10,10,0,0,0-2.4,2.12l-1.58-.5a2.48,2.48,0,0,1-1.25-1c.07-.35,0-.66-.17-.77s-.42,0-.7.3a4.19,4.19,0,0,0-.65,1,2.75,2.75,0,0,0-.4,1.62.34.34,0,0,0,.17.22c.19.1.43,0,.71-.3l.08-.1a3.18,3.18,0,0,1,2.12.63l.69.39a10.18,10.18,0,0,0-1.19,3.31l-2.69-.08a3.33,3.33,0,0,1-2-.65c-.08-.49-.25-.85-.53-.88-.53-.05-.88,1.06-1,2.12a4.84,4.84,0,0,0,.11,1.75c.1.3.24.5.45.52s.47-.2.66-.66l0-.1c.11-.1.88-.66,3.2-.31l1.65.33a9.84,9.84,0,0,0,1.87,5.48l-.56.47a2.63,2.63,0,0,1-1.53.49c-.32-.33-.58-.43-.77-.32s-.23.36-.14.75a.83.83,0,0,0,.06.21,4.34,4.34,0,0,0,.39.87,4,4,0,0,0,.69.93q.43.43.72.27c.19-.11.23-.38.12-.82,0-.12.28-.74,1.69-1.48l.33-.18a10,10,0,0,0,4.12,2.53l-.53,3.5a3.25,3.25,0,0,1-.82,1.82h-.11c-.47,0-.74.17-.79.41a.37.37,0,0,0,0,.18c.14.42,1,.79,1.88,1a5.13,5.13,0,0,0,1.4.13c.48,0,.74-.17.8-.41s-.14-.47-.56-.7l-.08,0c-.08-.12-.52-.9.07-3l.79-2.42a10,10,0,0,0,3.55-.28l.36,1.32a3.19,3.19,0,0,1,0,2l-.1,0c-.41.22-.6.46-.55.69,0,0,0,0,0,0,.07.21.33.33.78.37a5.44,5.44,0,0,0,1.39-.12c1-.21,2-.66,1.88-1.15-.06-.23-.32-.37-.79-.41h-.09c-.12-.07-.83-.6-1.15-2.75l-.07-.61a9.93,9.93,0,0,0,2.93-2.08l.67.4a3.27,3.27,0,0,1,1.46,1.54c-.19.53-.18.88,0,1,.44.3,1.28-.51,1.88-1.38a6.07,6.07,0,0,0,.69-1.33q.23-.72-.09-.93t-1,.33c-.14,0-1,.14-2.58-1a10.32,10.32,0,0,0,1.36-2.84l.19,0,2.4.12a2.54,2.54,0,0,1,1.48.7,1.79,1.79,0,0,0,.06.37.41.41,0,0,0,.3.33h0c.49.11.85-.93,1-1.57s.24-1.73-.25-1.84c-.26-.05-.49.22-.66.59a3.17,3.17,0,0,1-2.21-.08l-1.67-.42a1,1,0,0,1-.26-.1,10.38,10.38,0,0,0,0-2.36l3.51-1.12A3,3,0,0,1,575,160a.59.59,0,0,0,0,.08c.23.39.46.56.69.5s.35-.31.36-.77A4.79,4.79,0,0,0,575.94,158.45Z"/><path class="cls-1" d="M168.73,41.62c-.43-1.71-1.5-4.51-2.79-4.19-.66.17-.88,1-.89,2.06-.19.31-1.37,1.93-6.16,2.84l-6.43.94a23.77,23.77,0,0,0-5.62-8.86l3.06-3.79a6.26,6.26,0,0,1,3.24-2.29c.93.5,1.58.57,1.92.2s.23-.92-.25-1.72A10.39,10.39,0,0,0,153,24.69a10.27,10.27,0,0,0-2.27-1.62c-.83-.41-1.42-.44-1.73-.1s-.22,1,.35,1.88c0,.28,0,2.06-3.15,5.1L144,32a24.29,24.29,0,0,0-9.62-4.13L134,26.27a6,6,0,0,1,.63-3.84l0,0c.91-.33,1.35-.75,1.31-1.26-.08-1.19-2.7-1.34-4.24-1.24s-4.12.6-4,1.79a.57.57,0,0,0,0,.18c.13.42.62.72,1.44.9l.3,0c.3.32,1.14,1.48,1.28,4.59a24,24,0,0,0-8.06,1.12c-.53.17-1,.36-1.55.56l-2.22-5.32a6.73,6.73,0,0,1-.52-4.12c1-.64,1.33-1.21,1.17-1.76s-.78-.74-1.81-.69a11.24,11.24,0,0,0-2.92.63c-1.55.54-4.06,1.76-3.68,2.95v0c.18.53.85.75,2,.66.29.14,1.88,1.08,3.12,5.47l1,4.12a23.58,23.58,0,0,0-5.74,5.05l-3.75-1.18a6,6,0,0,1-3-2.51c.17-.84.12-1.57-.4-1.83s-1,0-1.68.71a10.21,10.21,0,0,0-1.55,2.3c-.57,1.1-1.26,2.92-1,3.87a.88.88,0,0,0,.42.52c.45.23,1,0,1.68-.71l.19-.23c.44-.1,2-.26,5.06,1.5l1.65.91a24,24,0,0,0-2.83,7.9l-6.42-.2a8.17,8.17,0,0,1-4.84-1.53c-.19-1.18-.58-2.05-1.27-2.11-1.26-.12-2.08,2.54-2.32,5.06a11.52,11.52,0,0,0,.26,4.17c.22.71.58,1.18,1.08,1.23S94,53.5,94.39,52.4l.07-.23c.27-.23,2.09-1.58,7.63-.73l3.92.78a24.37,24.37,0,0,0,1.11,6.4,23.8,23.8,0,0,0,3.35,6.66l-1.34,1.12a6.14,6.14,0,0,1-3.64,1.16c-.75-.77-1.37-1-1.83-.77s-.56.86-.34,1.8c0,.16.08.32.14.49a10.29,10.29,0,0,0,.93,2.07A9.93,9.93,0,0,0,106,73.39c.69.67,1.27.88,1.71.63s.56-.92.29-2c.09-.29.66-1.78,4-3.53l.8-.43a24.13,24.13,0,0,0,9.81,6l-1.26,8.33a7.54,7.54,0,0,1-2,4.33h-.25c-1.13.08-1.76.41-1.89,1a.83.83,0,0,0,0,.44c.32,1,2.42,1.88,4.47,2.33a12.48,12.48,0,0,0,3.35.3c1.13-.08,1.77-.4,1.89-1s-.32-1.12-1.32-1.66l-.2-.1c-.19-.28-1.23-2.14.18-7.19l1.87-5.77A23.6,23.6,0,0,0,136,74.5l.87,3.14a7.43,7.43,0,0,1,0,4.71l-.22.1c-1,.54-1.43,1.09-1.31,1.65,0,0,0,.06,0,.09.16.5.78.8,1.85.88a12.22,12.22,0,0,0,3.32-.29c2.32-.49,4.71-1.56,4.46-2.73-.12-.55-.74-.88-1.86-1h-.22c-.29-.18-2-1.44-2.75-6.57L140,73.06a24,24,0,0,0,7-4.94l1.58.94a8,8,0,0,1,3.49,3.67c-.47,1.28-.43,2.1.1,2.46,1,.71,3-1.21,4.47-3.3a13.32,13.32,0,0,0,1.64-3.16c.36-1.13.29-1.88-.2-2.21s-1.3-.1-2.3.79c-.32.07-2.3.32-6.15-2.4a24.22,24.22,0,0,0,3.24-6.76,4.31,4.31,0,0,1,.45.06l5.74.27a5.91,5.91,0,0,1,3.51,1.68,3.37,3.37,0,0,0,.15.88,1,1,0,0,0,.7.78h0c1.17.26,2-2.23,2.37-3.73s.57-4.13-.59-4.38c-.63-.14-1.17.52-1.59,1.39-.39.21-1.85.74-5.26-.18l-4-1a2.67,2.67,0,0,1-.63-.24,23.55,23.55,0,0,0-.12-5.62L162,45.38a7.15,7.15,0,0,1,4.49-.16l.09.2c.55.94,1.11,1.34,1.65,1.21s.83-.76.87-1.84A11.54,11.54,0,0,0,168.73,41.62Z"/><path class="cls-1" d="M102.18,476.84c-.48-1.93-1.69-5.1-3.16-4.74-.74.19-1,1.16-1,2.32-.22.36-1.55,2.19-7,3.22l-7.28,1.06a26.89,26.89,0,0,0-6.36-10l3.46-4.29a7.14,7.14,0,0,1,3.67-2.59c1.06.57,1.79.64,2.17.23s.27-1-.28-1.95a11.57,11.57,0,0,0-2.05-2.4,11.4,11.4,0,0,0-2.56-1.83c-.95-.47-1.61-.51-2-.12s-.24,1.13.4,2.12c0,.33,0,2.34-3.56,5.78l-2.55,2.27a27.22,27.22,0,0,0-10.89-4.68l-.42-1.76a6.79,6.79,0,0,1,.71-4.34l.06,0c1-.38,1.53-.86,1.49-1.43-.09-1.35-3.06-1.52-4.8-1.4s-4.67.67-4.58,2a.78.78,0,0,0,0,.21c.15.47.69.81,1.62,1,.11,0,.23,0,.34.06.34.36,1.29,1.68,1.45,5.2A27.17,27.17,0,0,0,50,462c-.59.19-1.18.41-1.75.64l-2.52-6a7.55,7.55,0,0,1-.58-4.67c1.08-.72,1.51-1.37,1.32-2s-.89-.83-2-.78a12.33,12.33,0,0,0-3.3.72c-1.76.61-4.6,2-4.17,3.33v0c.21.6,1,.86,2.25.76.33.15,2.14,1.21,3.54,6.19l1.1,4.65a27,27,0,0,0-6.49,5.72l-4.25-1.34a6.79,6.79,0,0,1-3.37-2.84c.19-.94.14-1.77-.45-2.07s-1.16,0-1.91.8a11.71,11.71,0,0,0-1.75,2.61c-.64,1.25-1.43,3.3-1.08,4.38a.93.93,0,0,0,.47.59c.51.26,1.15,0,1.9-.8l.22-.26c.49-.12,2.24-.3,5.72,1.7l1.87,1a26.91,26.91,0,0,0-3.2,8.93l-7.27-.22a9,9,0,0,1-5.47-1.74c-.22-1.33-.67-2.31-1.45-2.38-1.42-.13-2.35,2.87-2.62,5.72a13.11,13.11,0,0,0,.29,4.72c.26.81.66,1.34,1.22,1.4s1.27-.54,1.77-1.79l.09-.26c.29-.26,2.36-1.79,8.62-.82l4.45.87a26.87,26.87,0,0,0,5,14.79l-1.51,1.27a7,7,0,0,1-4.13,1.31c-.84-.87-1.54-1.16-2.07-.86s-.63,1-.38,2a4.84,4.84,0,0,0,.16.56,12.39,12.39,0,0,0,1.05,2.34,11.3,11.3,0,0,0,1.87,2.53c.78.76,1.43,1,1.93.72s.64-1,.33-2.21c.1-.33.75-2,4.56-4l.89-.48a27.36,27.36,0,0,0,11.11,6.83l-1.43,9.43A8.56,8.56,0,0,1,46.4,528h-.28c-1.27.09-2,.47-2.13,1.1a.91.91,0,0,0,0,.49c.36,1.14,2.74,2.14,5.06,2.64a13.9,13.9,0,0,0,3.79.35c1.28-.09,2-.46,2.14-1.1s-.37-1.27-1.49-1.88l-.23-.11c-.21-.32-1.39-2.43.2-8.14l2.12-6.53a27.12,27.12,0,0,0,9.57-.76l1,3.55a8.41,8.41,0,0,1,0,5.33l-.25.12c-1.12.6-1.62,1.23-1.48,1.86a.3.3,0,0,0,0,.1c.18.58.89.91,2.09,1a13.93,13.93,0,0,0,3.76-.32c2.63-.56,5.33-1.77,5-3.09-.14-.63-.84-1-2.11-1.1H73c-.32-.2-2.23-1.63-3.11-7.43l-.18-1.65a26.66,26.66,0,0,0,7.91-5.59l1.79,1.07a9.07,9.07,0,0,1,4,4.15c-.53,1.45-.49,2.39.11,2.79,1.18.81,3.45-1.37,5.07-3.74a15.14,15.14,0,0,0,1.85-3.58c.41-1.28.33-2.12-.22-2.5s-1.47-.1-2.61.9c-.36.07-2.6.37-7-2.72a27.4,27.4,0,0,0,3.67-7.65,4.42,4.42,0,0,1,.51.07l6.49.3a6.78,6.78,0,0,1,4,1.9,4.19,4.19,0,0,0,.16,1,1.16,1.16,0,0,0,.8.89h0c1.32.28,2.31-2.53,2.68-4.23s.65-4.67-.67-5c-.71-.16-1.32.59-1.79,1.57-.45.24-2.1.85-6-.2L86,490.76a4.12,4.12,0,0,1-.72-.28,26.6,26.6,0,0,0-.13-6.36l9.48-3a8,8,0,0,1,5.08-.18c0,.07.07.16.11.23.62,1.05,1.25,1.51,1.86,1.36s.94-.85,1-2.08A13.23,13.23,0,0,0,102.18,476.84Z"/><path class="cls-1" d="M425,42c-.2-.82-.72-2.16-1.33-2-.32.08-.42.49-.42,1-.09.15-.66.92-2.94,1.35l-3.07.45a11.42,11.42,0,0,0-2.68-4.22L416,36.75a3,3,0,0,1,1.54-1.1c.45.24.76.28.92.1s.11-.44-.12-.82a4.77,4.77,0,0,0-.86-1,4.58,4.58,0,0,0-1.09-.77c-.39-.2-.67-.22-.82,0s-.11.47.16.89c0,.14,0,1-1.5,2.44l-1.07,1a11.47,11.47,0,0,0-4.59-2l-.18-.74a2.88,2.88,0,0,1,.3-1.83h0c.43-.16.64-.36.62-.6,0-.57-1.29-.64-2-.59s-2,.28-1.93.85c0,0,0,.06,0,.09.07.2.3.34.69.43l.14,0a3.33,3.33,0,0,1,.61,2.19,11.61,11.61,0,0,0-3.84.53c-.25.08-.5.18-.74.27l-1.06-2.54a3.18,3.18,0,0,1-.25-2c.46-.31.64-.58.56-.84s-.37-.35-.86-.33a5.52,5.52,0,0,0-1.4.3c-.73.26-1.93.84-1.75,1.41h0c.09.25.41.36.95.31.14.07.9.52,1.49,2.61l.47,2a11.27,11.27,0,0,0-2.74,2.4l-1.79-.56a2.83,2.83,0,0,1-1.42-1.2c.08-.39.06-.74-.19-.87s-.49,0-.81.34a5.25,5.25,0,0,0-.74,1.1,3.15,3.15,0,0,0-.45,1.85.37.37,0,0,0,.2.24c.21.11.48,0,.8-.34l.09-.1a3.55,3.55,0,0,1,2.41.71l.79.44a11.6,11.6,0,0,0-1.35,3.76l-3.06-.09a3.84,3.84,0,0,1-2.31-.73c-.09-.56-.28-1-.61-1-.6,0-1,1.21-1.1,2.42a5.49,5.49,0,0,0,.12,2c.11.33.27.56.51.58s.54-.22.75-.75l0-.11c.13-.11,1-.75,3.64-.35l1.88.37a10.93,10.93,0,0,0,.53,3.06,11.29,11.29,0,0,0,1.59,3.18l-.64.53a2.88,2.88,0,0,1-1.74.55c-.35-.36-.65-.49-.87-.36s-.26.41-.16.86c0,.07,0,.15.07.23a4.94,4.94,0,0,0,.44,1,4.43,4.43,0,0,0,.79,1.06c.33.33.6.43.81.31s.27-.44.14-.93c0-.14.32-.85,1.92-1.69l.38-.2A11.56,11.56,0,0,0,403,57.52l-.6,4a3.62,3.62,0,0,1-.93,2.07h-.12c-.54,0-.84.2-.9.47a.38.38,0,0,0,0,.21c.15.47,1.15.9,2.13,1.11a5.87,5.87,0,0,0,1.6.14c.54,0,.84-.19.9-.46s-.15-.53-.63-.79l-.09,0c-.09-.13-.59-1,.08-3.43l.9-2.75a11.53,11.53,0,0,0,4-.32l.42,1.5a3.57,3.57,0,0,1,0,2.24l-.11,0c-.47.26-.68.52-.62.79,0,0,0,0,0,0,.08.24.37.38.88.42a5.7,5.7,0,0,0,1.58-.14c1.11-.23,2.25-.74,2.13-1.3-.05-.27-.35-.42-.89-.46h-.1c-.13-.08-.94-.68-1.31-3.13l-.08-.69a11.41,11.41,0,0,0,3.34-2.36l.75.45a3.85,3.85,0,0,1,1.67,1.75c-.22.61-.21,1,0,1.18.5.34,1.46-.58,2.14-1.58a6.23,6.23,0,0,0,.78-1.51q.25-.81-.09-1c-.25-.17-.62-.05-1.1.37-.16,0-1.1.16-2.93-1.14a11.71,11.71,0,0,0,1.54-3.23l.22,0,2.73.13a2.85,2.85,0,0,1,1.68.8,1.67,1.67,0,0,0,.07.42.49.49,0,0,0,.34.38h0c.55.12,1-1.07,1.12-1.79s.28-2-.28-2.09c-.3-.06-.56.25-.75.67a3.66,3.66,0,0,1-2.52-.09l-1.89-.48a1.69,1.69,0,0,1-.3-.11,11,11,0,0,0-.06-2.69l4-1.27a3.3,3.3,0,0,1,2.14-.07l.05.09c.26.45.52.64.78.58s.4-.36.42-.88A5.42,5.42,0,0,0,425,42Z"/><path class="cls-1" d="M106.92,559.57c-.2-.82-.71-2.15-1.33-2-.31.08-.42.49-.42,1-.09.15-.65.92-2.94,1.36l-3.07.44a11.37,11.37,0,0,0-2.68-4.22l1.46-1.81a2.93,2.93,0,0,1,1.55-1.09c.44.24.75.27.91.09s.11-.44-.12-.82a5,5,0,0,0-.86-1,5.08,5.08,0,0,0-1.08-.77c-.4-.2-.68-.21-.83-.05s-.1.48.17.9c0,.13,0,1-1.5,2.43l-1.08,1a11.63,11.63,0,0,0-4.59-2l-.18-.74a3,3,0,0,1,.3-1.83h0c.43-.15.64-.36.63-.6,0-.57-1.3-.64-2-.59s-2,.28-1.93.85a.29.29,0,0,0,0,.09c.06.2.29.34.68.43l.15,0a3.48,3.48,0,0,1,.61,2.2,11.16,11.16,0,0,0-3.85.53l-.74.26-1.06-2.53a3.18,3.18,0,0,1-.24-2c.45-.3.63-.58.55-.84s-.37-.35-.86-.33a5.37,5.37,0,0,0-1.39.3c-.74.26-1.94.84-1.76,1.41h0c.09.25.41.36,1,.32.14.06.9.51,1.5,2.61l.46,2a11.52,11.52,0,0,0-2.74,2.41l-1.79-.56a2.94,2.94,0,0,1-1.42-1.2c.08-.4.06-.75-.19-.88s-.49,0-.8.34a4.58,4.58,0,0,0-.74,1.1,3.24,3.24,0,0,0-.46,1.85.45.45,0,0,0,.2.25c.22.11.49,0,.8-.34l.09-.11a3.56,3.56,0,0,1,2.42.72l.78.43a11.65,11.65,0,0,0-1.35,3.77l-3.06-.1a3.84,3.84,0,0,1-2.31-.73c-.09-.56-.28-1-.6-1-.6-.06-1,1.21-1.11,2.41a5.49,5.49,0,0,0,.12,2c.11.34.28.56.52.59s.53-.23.74-.76a.76.76,0,0,1,0-.11c.12-.11,1-.75,3.63-.34l1.88.37a10.86,10.86,0,0,0,.53,3,11.56,11.56,0,0,0,1.59,3.18l-.63.54a3,3,0,0,1-1.74.55c-.36-.37-.65-.49-.88-.37s-.26.41-.16.86c0,.07,0,.15.07.23a5.59,5.59,0,0,0,.44,1,5.4,5.4,0,0,0,.79,1.07c.33.32.61.42.82.3s.27-.44.14-.93c0-.14.31-.85,1.92-1.68l.37-.21A11.43,11.43,0,0,0,85,575.09l-.61,4a3.51,3.51,0,0,1-.93,2.06h-.12c-.54,0-.84.19-.9.46a.5.5,0,0,0,0,.21c.16.48,1.16.9,2.14,1.11a5.85,5.85,0,0,0,1.6.15c.53,0,.84-.2.9-.47s-.16-.53-.63-.79l-.1,0c-.09-.13-.58-1,.09-3.43l.89-2.75a11.3,11.3,0,0,0,4-.32l.42,1.5a3.5,3.5,0,0,1,0,2.24l-.1,0c-.47.26-.68.52-.63.79a.06.06,0,0,1,0,0c.08.24.38.39.88.42a5.73,5.73,0,0,0,1.59-.13c1.11-.24,2.25-.75,2.13-1.31-.06-.26-.36-.42-.89-.46h-.11c-.13-.09-.94-.69-1.31-3.14l-.07-.69a11.18,11.18,0,0,0,3.33-2.36l.75.45A3.85,3.85,0,0,1,99,574.41c-.22.61-.21,1,0,1.18.49.34,1.45-.58,2.13-1.58a5.9,5.9,0,0,0,.78-1.51c.18-.54.14-.89-.09-1s-.62,0-1.1.38c-.15,0-1.1.15-2.93-1.15a11.37,11.37,0,0,0,1.54-3.22.54.54,0,0,1,.22,0l2.73.12a2.94,2.94,0,0,1,1.68.8,1.84,1.84,0,0,0,.07.43.49.49,0,0,0,.34.37h0c.56.12,1-1.06,1.13-1.78s.27-2-.29-2.09c-.3-.07-.55.25-.75.66a3.59,3.59,0,0,1-2.51-.08l-1.9-.48a2.33,2.33,0,0,1-.3-.12,11.47,11.47,0,0,0,0-2.68l4-1.28a3.44,3.44,0,0,1,2.14-.07.73.73,0,0,0,0,.09c.26.45.53.64.78.58s.4-.36.42-.88A5.42,5.42,0,0,0,106.92,559.57Z"/><path class="cls-1" d="M587.47,436.42c-.25-1-.86-2.57-1.59-2.38-.38.09-.5.58-.51,1.17-.1.18-.78,1.1-3.51,1.62l-3.66.53a13.6,13.6,0,0,0-3.21-5.05l1.75-2.16a3.57,3.57,0,0,1,1.84-1.3c.54.28.9.32,1.1.11s.13-.53-.14-1a5.8,5.8,0,0,0-1-1.21,5.45,5.45,0,0,0-1.29-.92c-.47-.24-.81-.25-1-.06s-.12.57.2,1.07c0,.16,0,1.18-1.79,2.91l-1.29,1.14a13.68,13.68,0,0,0-5.48-2.35l-.21-.89a3.44,3.44,0,0,1,.36-2.19h0c.51-.19.77-.43.75-.72,0-.68-1.54-.76-2.42-.7s-2.35.34-2.31,1c0,0,0,.07,0,.1.08.24.35.41.82.51l.17,0a4.11,4.11,0,0,1,.73,2.62,13.55,13.55,0,0,0-4.59.64c-.3.09-.59.2-.88.31l-1.27-3a3.82,3.82,0,0,1-.29-2.35c.54-.36.76-.69.66-1s-.45-.42-1-.39a6.08,6.08,0,0,0-1.66.36c-.89.3-2.32,1-2.1,1.68h0c.11.3.49.43,1.14.38.16.08,1.07.61,1.78,3.12l.55,2.34a13.68,13.68,0,0,0-3.27,2.88l-2.14-.67a3.47,3.47,0,0,1-1.69-1.43c.09-.48.07-.9-.23-1.05s-.58,0-1,.41a5.85,5.85,0,0,0-.89,1.31,3.85,3.85,0,0,0-.54,2.21.46.46,0,0,0,.24.29c.26.13.58,0,1-.4l.11-.13c.24-.06,1.13-.15,2.88.85l.94.52a13.77,13.77,0,0,0-1.61,4.5l-3.66-.11a4.57,4.57,0,0,1-2.76-.87c-.11-.67-.33-1.17-.73-1.21-.71-.06-1.18,1.45-1.32,2.89a6.59,6.59,0,0,0,.15,2.37c.13.41.33.68.62.7s.63-.27.88-.9c0,0,0-.08,0-.12s1.19-.91,4.34-.42l2.24.44a13.54,13.54,0,0,0,2.54,7.45l-.76.64a3.56,3.56,0,0,1-2.08.66c-.43-.44-.78-.59-1-.44s-.32.49-.19,1c0,.1,0,.19.07.29a7,7,0,0,0,.53,1.18,5.83,5.83,0,0,0,1,1.27c.39.38.72.5,1,.36s.32-.52.17-1.11c0-.17.37-1,2.29-2l.45-.25a13.66,13.66,0,0,0,5.59,3.44l-.71,4.75a4.33,4.33,0,0,1-1.12,2.47h-.14c-.65,0-1,.23-1.08.55a.43.43,0,0,0,0,.25c.18.57,1.38,1.07,2.55,1.33a7,7,0,0,0,1.91.17c.64-.05,1-.23,1.07-.55s-.18-.64-.75-.95l-.11-.05c-.11-.17-.7-1.23.1-4.11l1.07-3.28a13.61,13.61,0,0,0,4.81-.39l.5,1.79a4.27,4.27,0,0,1,0,2.69l-.12.06c-.57.3-.82.62-.75.94v0c.09.29.45.46,1,.51a7,7,0,0,0,1.9-.17c1.32-.28,2.68-.88,2.54-1.55-.07-.32-.42-.51-1.06-.55h-.13c-.16-.1-1.12-.82-1.57-3.74l-.09-.83a13.51,13.51,0,0,0,4-2.81l.9.53a4.59,4.59,0,0,1,2,2.09c-.27.73-.25,1.2,0,1.41.6.4,1.74-.69,2.56-1.88a8,8,0,0,0,.93-1.81c.21-.64.17-1.06-.11-1.26s-.74-.05-1.32.45c-.18,0-1.31.19-3.5-1.36a13.45,13.45,0,0,0,1.84-3.86,1.46,1.46,0,0,1,.26,0L582,446a3.39,3.39,0,0,1,2,1,1.87,1.87,0,0,0,.08.5.58.58,0,0,0,.4.45h0c.67.14,1.16-1.27,1.35-2.13s.33-2.35-.34-2.5c-.36-.08-.66.3-.9.79-.23.12-1.06.43-3-.1l-2.26-.57a2.65,2.65,0,0,1-.36-.14,13.73,13.73,0,0,0-.07-3.2l4.77-1.52a4,4,0,0,1,2.56-.09l.06.11c.31.53.63.76.93.69s.48-.43.5-1A6.9,6.9,0,0,0,587.47,436.42Z"/><path class="cls-1" d="M155.11,514c-.17-.69-.6-1.82-1.12-1.69-.27.06-.36.41-.36.82-.08.13-.55.79-2.49,1.15l-2.6.38a9.78,9.78,0,0,0-2.27-3.58l1.23-1.53a2.55,2.55,0,0,1,1.31-.92c.38.2.64.23.78.08s.09-.38-.1-.7a3.9,3.9,0,0,0-.73-.85,4.09,4.09,0,0,0-.92-.66c-.34-.17-.57-.18-.7,0s-.09.4.14.76c0,.11,0,.83-1.27,2.06l-.91.81a9.71,9.71,0,0,0-3.89-1.67l-.15-.63a2.51,2.51,0,0,1,.25-1.55h0c.36-.13.54-.3.53-.51,0-.48-1.1-.54-1.72-.5s-1.66.24-1.63.72a.19.19,0,0,0,0,.08c.05.17.25.29.58.36l.12,0a2.93,2.93,0,0,1,.52,1.86,9.69,9.69,0,0,0-3.26.45l-.62.23-.9-2.15a2.69,2.69,0,0,1-.21-1.67c.39-.26.54-.49.47-.71s-.32-.3-.73-.28a4.61,4.61,0,0,0-1.18.26c-.63.21-1.64.71-1.49,1.19h0c.07.21.34.3.8.26.12.06.76.44,1.26,2.22l.4,1.66a9.67,9.67,0,0,0-2.32,2l-1.52-.48a2.47,2.47,0,0,1-1.2-1c.07-.34.05-.63-.16-.74s-.42,0-.68.28a3.94,3.94,0,0,0-.63.94,2.7,2.7,0,0,0-.39,1.56.36.36,0,0,0,.17.21c.18.09.41,0,.68-.29l.08-.09a3,3,0,0,1,2,.61l.67.37a9.66,9.66,0,0,0-1.14,3.19l-2.6-.08a3.21,3.21,0,0,1-2-.62c-.08-.48-.24-.83-.52-.85-.51,0-.84,1-.94,2a4.76,4.76,0,0,0,.11,1.69c.09.28.23.47.43.49s.46-.19.63-.64c0,0,0-.06,0-.09s.84-.64,3.08-.29l1.58.31a9.78,9.78,0,0,0,.45,2.59,9.59,9.59,0,0,0,1.36,2.69L131,524a2.45,2.45,0,0,1-1.47.46c-.3-.31-.55-.41-.74-.31s-.22.35-.13.73a1.94,1.94,0,0,0,0,.2,4.07,4.07,0,0,0,.38.84,4.2,4.2,0,0,0,.66.9c.28.27.52.36.7.26s.22-.38.11-.79c0-.12.27-.72,1.63-1.43l.32-.17a9.8,9.8,0,0,0,4,2.44l-.51,3.36a3.1,3.1,0,0,1-.8,1.76h-.1c-.45,0-.71.16-.76.39a.37.37,0,0,0,0,.18c.13.4,1,.76,1.81.94a4.78,4.78,0,0,0,1.35.12c.46,0,.72-.16.77-.39s-.13-.45-.54-.67l-.08,0c-.07-.11-.49-.87.08-2.91l.75-2.33a9.71,9.71,0,0,0,3.42-.27l.35,1.27a3,3,0,0,1,0,1.9l-.09,0c-.4.22-.58.44-.53.67a0,0,0,0,0,0,0c.06.21.31.33.74.36a4.66,4.66,0,0,0,1.34-.12c.94-.19,1.91-.62,1.81-1.1-.05-.22-.3-.36-.76-.39h-.08c-.12-.08-.8-.58-1.12-2.66l-.06-.59a9.51,9.51,0,0,0,2.83-2l.63.38a3.31,3.31,0,0,1,1.42,1.48c-.19.52-.18.85,0,1,.43.29,1.24-.49,1.81-1.34a4.74,4.74,0,0,0,.66-1.28c.15-.45.12-.75-.07-.89s-.53,0-.94.32c-.12,0-.92.13-2.48-1a9.55,9.55,0,0,0,1.31-2.73l.18,0,2.32.11a2.46,2.46,0,0,1,1.42.68,1.93,1.93,0,0,0,.06.36.41.41,0,0,0,.28.31h0c.48.11.83-.9,1-1.51s.23-1.66-.24-1.77c-.25-.05-.47.21-.64.56a3,3,0,0,1-2.13-.07l-1.6-.4-.26-.1a9.59,9.59,0,0,0,0-2.27l3.38-1.08a2.92,2.92,0,0,1,1.82-.07.36.36,0,0,0,0,.09c.22.37.44.54.66.48s.34-.3.35-.74A4.43,4.43,0,0,0,155.11,514Z"/><path class="cls-1" d="M222.35,537.16c-.18-.69-.61-1.83-1.13-1.69-.27.06-.36.41-.36.82-.07.13-.55.79-2.49,1.15l-2.6.38a9.65,9.65,0,0,0-2.27-3.58l1.24-1.53a2.47,2.47,0,0,1,1.31-.92c.37.2.64.23.77.08s.1-.38-.1-.7a3.9,3.9,0,0,0-.73-.85,4.09,4.09,0,0,0-.92-.66c-.33-.17-.57-.18-.7,0s-.09.4.14.76c0,.11,0,.83-1.27,2.06l-.91.81a9.65,9.65,0,0,0-3.89-1.67l-.15-.63a2.4,2.4,0,0,1,.26-1.55h0c.36-.13.54-.3.53-.51,0-.48-1.09-.54-1.72-.5s-1.66.24-1.63.72c0,0,0,.06,0,.08.06.17.25.29.58.36l.13,0a2.89,2.89,0,0,1,.51,1.86,9.64,9.64,0,0,0-3.25.45c-.22.07-.42.15-.63.23l-.9-2.15a2.77,2.77,0,0,1-.21-1.67c.39-.26.54-.49.47-.71s-.31-.3-.73-.28a4.61,4.61,0,0,0-1.18.26c-.62.21-1.64.71-1.48,1.19h0c.07.21.34.3.8.26.12.06.76.44,1.27,2.22l.39,1.66a9.67,9.67,0,0,0-2.32,2l-1.52-.48a2.47,2.47,0,0,1-1.2-1c.07-.34,0-.63-.16-.74s-.41,0-.68.28a3.94,3.94,0,0,0-.63.94,2.61,2.61,0,0,0-.38,1.56.34.34,0,0,0,.16.21c.19.09.42,0,.68-.29l.08-.09a3,3,0,0,1,2.05.61l.66.37a9.66,9.66,0,0,0-1.14,3.19l-2.6-.08a3.21,3.21,0,0,1-1.95-.62c-.08-.48-.24-.83-.52-.85-.5,0-.84,1-.93,2a4.56,4.56,0,0,0,.1,1.69c.09.28.23.47.44.49s.45-.19.63-.64l0-.09c.1-.09.84-.64,3.08-.29l1.59.31a9.65,9.65,0,0,0,1.8,5.28l-.54.46a2.49,2.49,0,0,1-1.48.46c-.3-.31-.55-.41-.74-.31s-.22.35-.13.73a1.94,1.94,0,0,0,.05.2,5.51,5.51,0,0,0,.38.84,4.21,4.21,0,0,0,.67.9c.28.27.51.36.69.26s.23-.38.12-.79c0-.12.26-.72,1.62-1.43l.32-.17a9.87,9.87,0,0,0,4,2.44l-.51,3.36a3.12,3.12,0,0,1-.79,1.76h-.1c-.46,0-.72.16-.77.39a.55.55,0,0,0,0,.18c.13.4,1,.76,1.81.94a4.82,4.82,0,0,0,1.36.12c.45,0,.71-.16.76-.39s-.13-.45-.53-.67l-.08,0c-.08-.12-.5-.87.07-2.91l.76-2.33a9.67,9.67,0,0,0,3.41-.27l.35,1.27a3,3,0,0,1,0,1.9l-.09,0c-.4.22-.58.44-.53.67a0,0,0,0,0,0,0c.06.21.31.33.74.36a4.75,4.75,0,0,0,1.35-.12c.94-.19,1.9-.62,1.8-1.1,0-.22-.3-.36-.75-.39h-.09c-.12-.08-.8-.58-1.11-2.66l-.07-.59a9.7,9.7,0,0,0,2.83-2l.64.38a3.26,3.26,0,0,1,1.41,1.48c-.19.52-.18.85,0,1,.42.29,1.23-.49,1.81-1.34a5.4,5.4,0,0,0,.66-1.28c.14-.45.12-.75-.08-.89s-.53,0-.93.32c-.13,0-.93.13-2.49-1a9.55,9.55,0,0,0,1.31-2.73l.18,0,2.32.11a2.42,2.42,0,0,1,1.42.68,1.93,1.93,0,0,0,.06.36.4.4,0,0,0,.29.31h0c.47.11.82-.9.95-1.51s.23-1.66-.24-1.77c-.25,0-.47.21-.64.56a3,3,0,0,1-2.12-.07l-1.61-.4s-.13,0-.25-.1a9.59,9.59,0,0,0-.05-2.27l3.38-1.08a2.92,2.92,0,0,1,1.82-.07l0,.09c.22.37.44.54.66.48s.34-.3.36-.74A5.25,5.25,0,0,0,222.35,537.16Z"/><path class="cls-1" d="M445.26,528c-.24-1-.85-2.55-1.57-2.37-.38.1-.5.58-.5,1.16-.11.18-.78,1.09-3.48,1.61l-3.63.53a13.32,13.32,0,0,0-3.17-5l1.72-2.14a3.48,3.48,0,0,1,1.83-1.29c.53.28.89.32,1.09.11s.13-.52-.14-1a6.49,6.49,0,0,0-2.31-2.11c-.47-.23-.8-.25-1-.06s-.12.56.2,1.06c0,.16,0,1.16-1.77,2.88l-1.27,1.13a13.67,13.67,0,0,0-5.44-2.33l-.2-.88a3.36,3.36,0,0,1,.35-2.17h0c.51-.19.76-.43.74-.72,0-.67-1.52-.75-2.39-.7s-2.33.34-2.28,1a.41.41,0,0,0,0,.11c.08.23.35.4.82.5l.16,0a4,4,0,0,1,.73,2.59,13.49,13.49,0,0,0-4.55.63l-.88.32-1.25-3a3.76,3.76,0,0,1-.29-2.33c.54-.36.75-.68.66-1s-.44-.42-1-.39a5.94,5.94,0,0,0-1.65.36c-.87.3-2.29,1-2.08,1.66h0c.1.3.48.43,1.12.38.16.07,1.06.6,1.76,3.08l.55,2.32a13.63,13.63,0,0,0-3.24,2.85l-2.11-.66a3.32,3.32,0,0,1-1.68-1.42c.09-.47.06-.88-.23-1s-.57,0-.95.4a6,6,0,0,0-.88,1.3,3.76,3.76,0,0,0-.53,2.18.47.47,0,0,0,.23.3c.26.13.58,0,.95-.4l.11-.13c.24-.06,1.12-.15,2.85.84l.93.52a13.7,13.7,0,0,0-1.59,4.45l-3.63-.11a4.53,4.53,0,0,1-2.73-.86c-.1-.67-.33-1.16-.72-1.19-.7-.07-1.17,1.43-1.3,2.85a6.57,6.57,0,0,0,.14,2.36c.13.4.33.66.61.69s.63-.27.88-.89a.65.65,0,0,0,0-.13c.15-.13,1.18-.89,4.31-.41l2.21.44a13.83,13.83,0,0,0,.63,3.61,13.54,13.54,0,0,0,1.89,3.76l-.76.64a3.51,3.51,0,0,1-2.05.65c-.43-.44-.77-.58-1-.43s-.31.48-.19,1c0,.09.05.18.08.28a7.27,7.27,0,0,0,.52,1.17,5.74,5.74,0,0,0,.94,1.26c.39.38.71.5,1,.35s.32-.51.17-1.1c.05-.16.37-1,2.27-2l.45-.24a13.47,13.47,0,0,0,5.53,3.4l-.71,4.71a4.31,4.31,0,0,1-1.1,2.45h-.14c-.64,0-1,.23-1.07.55a.4.4,0,0,0,0,.24c.18.57,1.36,1.07,2.52,1.32a6.86,6.86,0,0,0,1.89.17c.64,0,1-.23,1.06-.55s-.18-.63-.74-.94l-.11,0c-.11-.16-.69-1.21.1-4.06l1.06-3.26a13.37,13.37,0,0,0,4.77-.37l.49,1.77a4.18,4.18,0,0,1,0,2.66l-.12.06c-.56.3-.81.61-.74.92a.07.07,0,0,0,0,0c.09.29.44.46,1,.5a7.19,7.19,0,0,0,1.88-.16c1.31-.28,2.66-.88,2.52-1.54-.07-.32-.43-.5-1.06-.55h-.12c-.16-.1-1.12-.81-1.55-3.71l-.09-.82a13.4,13.4,0,0,0,3.94-2.79l.89.53a4.45,4.45,0,0,1,2,2.08c-.26.72-.24,1.18.06,1.39.59.4,1.72-.69,2.52-1.87a7.47,7.47,0,0,0,.93-1.78c.2-.64.17-1.06-.11-1.25s-.74,0-1.3.44c-.18,0-1.3.19-3.47-1.35a13.81,13.81,0,0,0,1.83-3.81l.25,0,3.24.15a3.38,3.38,0,0,1,2,1,2.49,2.49,0,0,0,.08.5.6.6,0,0,0,.4.44h0c.66.14,1.15-1.26,1.34-2.11s.32-2.33-.34-2.47c-.35-.08-.65.29-.89.78-.22.12-1.05.42-3-.1l-2.24-.56a2.65,2.65,0,0,1-.36-.14,14.13,14.13,0,0,0-.06-3.18l4.72-1.5A4.05,4.05,0,0,1,444,530a1.17,1.17,0,0,0,.05.11c.31.53.62.76.93.68s.47-.42.49-1A6.71,6.71,0,0,0,445.26,528Z"/><path class="cls-28" d="M276.08,361.29l44.8-25.59a15,15,0,0,1,20.38,5.56h0a15,15,0,0,1-5.56,20.38l-44.8,25.59a15,15,0,0,1-20.38-5.56h0A15,15,0,0,1,276.08,361.29Z"/><path class="cls-29" d="M324.74,345,295.26,361.8a3.74,3.74,0,0,1-5.09-1.39h0a3.74,3.74,0,0,1,1.39-5.09L321,338.48a3.74,3.74,0,0,1,5.09,1.39h0A3.74,3.74,0,0,1,324.74,345Z"/><path class="cls-30" d="M342.27,348.5l-44.8,25.6a15,15,0,0,1-20.38-5.56h0a14.78,14.78,0,0,1-1.94-6.67,15,15,0,0,0-4.63,19.8h0a15,15,0,0,0,20.38,5.56l44.8-25.59a15,15,0,0,0,7.49-13.72C342.89,348.12,342.59,348.32,342.27,348.5Z"/><path class="cls-7" d="M299.07,348.16l14.82,25.94-23,13.13a15,15,0,0,1-20.38-5.56,14.59,14.59,0,0,1-.74-1.48c-.09-.19-.16-.38-.23-.57s-.17-.44-.24-.67a12.73,12.73,0,0,1-.38-1.34l-.09-.46c0-.18-.07-.36-.1-.56s-.05-.32-.07-.49,0-.39-.05-.59,0-.24,0-.36a4.87,4.87,0,0,1,0-.54c0-.2,0-.4,0-.61s0-.34,0-.51,0-.42.05-.63a4.53,4.53,0,0,1,.07-.62.78.78,0,0,1,0-.14c0-.19.06-.37.09-.55a.79.79,0,0,1,0-.13c0-.19.08-.39.12-.59.1-.44.23-.87.37-1.3,0,0,0,0,0,0,.08-.21.15-.41.23-.61s.17-.43.26-.64a13.31,13.31,0,0,1,1-1.83s0,0,0,0a11.86,11.86,0,0,1,.77-1.13l.43-.54a12.05,12.05,0,0,1,.89-1l.08-.08q.45-.43.93-.84l.18-.14.47-.38a18.13,18.13,0,0,1,1.52-1Z"/><path class="cls-8" d="M309.85,367l4,7.08-23,13.13a15,15,0,0,1-20.38-5.56,14.59,14.59,0,0,1-.74-1.48c-.09-.19-.16-.38-.23-.57s-.17-.44-.24-.67a12.73,12.73,0,0,1-.38-1.34l-.09-.46c0-.18-.07-.36-.1-.56s-.05-.32-.07-.49,0-.39-.05-.59,0-.24,0-.36a4.87,4.87,0,0,1,0-.54c0-.2,0-.4,0-.61s0-.34,0-.51,0-.42.05-.63a4.53,4.53,0,0,1,.07-.62.78.78,0,0,1,0-.14c0-.19.06-.37.09-.55a.79.79,0,0,1,0-.13c0-.19.08-.39.12-.59.11-.44.23-.88.37-1.3,0,0,0,0,0,0,.08-.21.15-.41.23-.61s.17-.43.26-.64a15.93,15.93,0,0,1,1-1.83s0,0,0,0c.24-.39.5-.76.77-1.13l.43-.54c.28-.34.58-.67.89-1l.08-.08q.45-.43.93-.84l.18-.14.47-.38.59-.41a15.87,15.87,0,0,0,.55,3.39,15.31,15.31,0,0,0,1.39,3.27,15,15,0,0,0,20.38,5.56Z"/><path class="cls-9" d="M300.3,350.32l3.71,6.49-8.74,5a3.73,3.73,0,1,1-3.71-6.48Z"/><path class="cls-12" d="M411.77,331.09a10.92,10.92,0,0,0-4.68-6l-45-27.7a11,11,0,0,0-7.49-1.48l-3.28-2L347,301a11,11,0,0,0,3.6,15.13l45,27.7a11,11,0,0,0,15.13-3.59l4.37-7.1Z"/><path class="cls-10" d="M399.75,337l-45-27.7a11,11,0,0,1-3.6-15.13h0a11,11,0,0,1,15.13-3.6l45,27.7a11,11,0,0,1,3.6,15.13h0A11,11,0,0,1,399.75,337Z"/><path class="cls-12" d="M410.13,330c-.7,1.14-13-5.16-27.45-14.07s-25.62-17-24.92-18.18,13,5.16,27.45,14.07S410.83,328.84,410.13,330Z"/><path class="cls-11" d="M357.74,297.82c-.2,1.4,10.78,9.38,24.94,18.09s26.23,14.94,27.38,14.13Z"/><path class="cls-8" d="M223.91,331.35A27.19,27.19,0,0,0,200.76,315l-1.2-2.76-9,3.91a.13.13,0,0,0,0,.05,27.18,27.18,0,0,0,22.15,49.58v0l8.49-3.68-1.2-2.77A27.16,27.16,0,0,0,223.91,331.35Z"/><path class="cls-7" d="M234,327a27.19,27.19,0,1,1-35.76-14.11A27.17,27.17,0,0,1,234,327Z"/><path class="cls-9" d="M232.46,331l-44.17,19.16a2.07,2.07,0,0,1-2.71-1.07h0a2.07,2.07,0,0,1,1.07-2.71l44.17-19.16a2.07,2.07,0,0,1,2.71,1.07h0A2.07,2.07,0,0,1,232.46,331Z"/><path class="cls-8" d="M232.06,330.06l-44.18,19.17a2.08,2.08,0,0,1-2.71-1.07h0a2.08,2.08,0,0,1,1.07-2.72l44.18-19.16a2.07,2.07,0,0,1,2.71,1.07h0A2.07,2.07,0,0,1,232.06,330.06Z"/></svg>